<svg xmlns="http://www.w3.org/2000/svg" width="15.9" height="20" viewBox="0 0 15.9 20"><defs><style>.a{fill:#fff;}</style></defs><path class="a" d="M-38.22,199.519v-1.574a6.566,6.566,0,0,0-6.557-6.558,6.566,6.566,0,0,0-6.557,6.558v1.574a1.76,1.76,0,0,0-1.393,1.721v8.388a1.758,1.758,0,0,0,1.758,1.759h12.383a1.759,1.759,0,0,0,1.759-1.759V201.24A1.76,1.76,0,0,0-38.22,199.519Zm-6.557-6.467a4.9,4.9,0,0,1,4.892,4.893v1.535h-9.784v-1.535A4.9,4.9,0,0,1-44.777,193.052Zm1.04,13.967v1.748a1.041,1.041,0,0,1-1.04,1.04h0a1.04,1.04,0,0,1-1.04-1.04v-1.748a1.886,1.886,0,0,1-.848-1.574,1.888,1.888,0,0,1,1.888-1.888,1.888,1.888,0,0,1,1.888,1.888A1.886,1.886,0,0,1-43.737,207.019Z" transform="translate(52.727 -191.387)"/></svg>