<svg xmlns="http://www.w3.org/2000/svg" width="25.103" height="16" viewBox="0 0 25.103 16"><defs><style>.a{fill:#fff;}</style></defs><g transform="translate(0 -92.835)"><path class="a" d="M4.966,9.931A4.967,4.967,0,0,1,.21,3.536L4.969,4.972,3.009.4A4.92,4.92,0,0,1,4.966,0a4.965,4.965,0,0,1,0,9.931Z" transform="translate(7.586 95.87)"/><path class="a" d="M24.944,100.347c-.224-.307-5.568-7.512-12.392-7.512S.383,100.04.159,100.346a.828.828,0,0,0,0,.977c.224.307,5.568,7.512,12.392,7.512s12.168-7.2,12.392-7.511A.827.827,0,0,0,24.944,100.347ZM12.552,107.18c-5.027,0-9.381-4.782-10.67-6.345,1.287-1.565,5.632-6.344,10.67-6.344s9.38,4.781,10.67,6.345C21.934,102.4,17.589,107.18,12.552,107.18Z" transform="translate(0)"/></g></svg>