<svg xmlns="http://www.w3.org/2000/svg" width="18.912" height="19" viewBox="0 0 18.912 19"><defs><style>.a{fill:#fff;}</style></defs><path class="a" d="M-16.2,134.885l-3.878-.1a.156.156,0,0,0-.16.189l.28,1.526a.155.155,0,0,1-.155.189l-1.8-.012a.156.156,0,0,0-.155.194l.32,1.576a.155.155,0,0,1-.161.194l-1.948-.077a.155.155,0,0,0-.121.046l-1.492,1.543a7,7,0,0,0-2.412-.433,7.032,7.032,0,0,0-7.033,7.033,7.032,7.032,0,0,0,7.033,7.032,7.032,7.032,0,0,0,7.033-7.032,7,7,0,0,0-.515-2.634l5.155-5.331a.153.153,0,0,0,.042-.1l.165-3.587A.207.207,0,0,0-16.2,134.885Zm-13.395,15.227a1.354,1.354,0,0,1-1.355-1.355,1.354,1.354,0,0,1,1.355-1.355,1.355,1.355,0,0,1,1.355,1.355A1.355,1.355,0,0,1-29.595,150.112Zm11.93-11.961-3.909,3.908a.545.545,0,0,1-.389.162.55.55,0,0,1-.39-.162.551.551,0,0,1,0-.779l3.909-3.908a.549.549,0,0,1,.779,0A.551.551,0,0,1-17.665,138.151Z" transform="translate(-16.002 153.78) rotate(180)"/></svg>