<svg xmlns="http://www.w3.org/2000/svg" width="17.79" height="18.808" viewBox="0 0 17.79 18.808"><defs><style>.a{fill:#b4b4b4;stroke:#b4b4b4;stroke-width:0.5px;}</style></defs><path class="a" d="M18.372,6.742a.351.351,0,0,0-.5,0L8.293,16.325a3.755,3.755,0,0,1-5.311-5.311l9.582-9.583a2.575,2.575,0,0,1,3.714.145,2.575,2.575,0,0,1,.145,3.714l-9,9A1.292,1.292,0,0,1,5.6,12.466l6.1-6.1a.351.351,0,0,0-.5-.5l-6.1,6.1a1.994,1.994,0,1,0,2.82,2.82l9-9a3.26,3.26,0,0,0-.145-4.707A3.26,3.26,0,0,0,12.068.935L2.486,10.517a4.458,4.458,0,0,0,6.3,6.3l9.582-9.583A.351.351,0,0,0,18.372,6.742Z" transform="translate(-0.934 0.436)"/></svg>