<svg xmlns="http://www.w3.org/2000/svg" viewBox="0 0 24 24"><defs><style>.cls-1{fill:none;stroke:#b4b4b4;stroke-linecap:round;stroke-linejoin:round;stroke-width:1.5px;}</style></defs><title>frame_calendar</title><g id="color_sheme" data-name="color sheme"><rect class="cls-1" x="3.72" y="10.54" width="3.72" height="3.72"/><rect class="cls-1" x="10.22" y="10.54" width="3.72" height="3.72"/><rect class="cls-1" x="16.72" y="10.54" width="3.72" height="3.72"/><rect class="cls-1" x="3.72" y="16.58" width="3.72" height="3.72"/><rect class="cls-1" x="10.22" y="16.58" width="3.72" height="3.72"/><rect class="cls-1" x="16.72" y="16.58" width="3.72" height="3.72"/><path class="cls-1" d="M22.83,5.45v2.8H1.33V5.45a2,2,0,0,1,2-2H5.75v1.8a.61.61,0,0,0,.61.61H7.77a.61.61,0,0,0,.62-.61V3.49h7.38v1.8a.61.61,0,0,0,.61.61H17.8a.61.61,0,0,0,.61-.61V3.49H20.8A2,2,0,0,1,22.83,5.45Z"/><path class="cls-1" d="M1.33,8.25h21.5a0,0,0,0,1,0,0v12.3a2,2,0,0,1-2,2H3.36a2,2,0,0,1-2-2V8.25A0,0,0,0,1,1.33,8.25Z"/><rect class="cls-1" x="5.75" y="1.09" width="2.64" height="4.82" rx="0.61" ry="0.61"/><rect class="cls-1" x="15.77" y="1.09" width="2.64" height="4.82" rx="0.61" ry="0.61"/></g></svg>