<svg xmlns="http://www.w3.org/2000/svg" viewBox="0 0 24 32"><defs><style>.cls-1{fill:#fff;}</style></defs><title>map_new add bus stop</title><g id="color_sheme" data-name="color sheme"><path class="cls-1" d="M19.25,18.7a5,5,0,1,0,5,5A5,5,0,0,0,19.25,18.7Zm2.61,5.61h-2v2a.59.59,0,0,1-.6.59h0a.59.59,0,0,1-.42-.17.6.6,0,0,1-.18-.43v-2h-2a.59.59,0,0,1-.59-.6.6.6,0,0,1,.6-.6h2v-2a.59.59,0,0,1,.6-.59.58.58,0,0,1,.6.6v2h2a.62.62,0,0,1,.6.6A.6.6,0,0,1,21.86,24.31Z"/><path class="cls-1" d="M11.94.5A11.47,11.47,0,0,0,.47,12c0,2.45,1.33,5.27,3.1,8.19l8.34,11.67,2.71-3.92a6.31,6.31,0,0,1,6.91-10.13A9.22,9.22,0,0,0,23.41,12,11.46,11.46,0,0,0,11.94.5Zm0,16.74a5.67,5.67,0,1,1,5.67-5.67A5.66,5.66,0,0,1,11.94,17.24Z"/></g></svg>