<svg xmlns="http://www.w3.org/2000/svg" width="13.477" height="12.233" viewBox="0 0 13.477 12.233"><defs><style>.a{fill:none;}.a,.b{stroke:#222;stroke-miterlimit:10;}.b,.c{fill:#222;}</style></defs><g transform="translate(-3.89 -196.247)"><path class="a" d="M9.1,197.332l-5.039,8.934a1.15,1.15,0,0,0,1,1.715H15.2a1.15,1.15,0,0,0,.971-1.766l-5.1-8.934A1.151,1.151,0,0,0,9.1,197.332Z" transform="translate(0.5)"/><path class="b" d="M9.633,200.287c0-.245.19-.347.408-.347a.358.358,0,0,1,.389.347l-.076.436a15.6,15.6,0,0,0-.209,2.693c0,.1-.009.109-.133.15-.142-.034-.142-.047-.142-.15a13.8,13.8,0,0,0-.124-2.249Z" transform="translate(0.673 0.308)"/><path class="c" d="M11.127,206.317a.722.722,0,0,1-.742.759.752.752,0,0,1-.758-.759.72.72,0,0,1,.758-.741A.737.737,0,0,1,11.127,206.317Z" transform="translate(0.279 -0.521)"/></g></svg>