<svg xmlns="http://www.w3.org/2000/svg" width="14.15" height="14.15" viewBox="0 0 14.15 14.15"><defs><style>.a,.b,.c,.d{fill:none;stroke-miterlimit:10;}.a{stroke:#000;}.a,.b,.d{stroke-width:0.8px;}.b,.c,.d{stroke:#222;}.c,.d{stroke-linecap:round;}.c{stroke-width:0.6px;}</style></defs><g transform="translate(25.364 -248.17)"><circle class="a" cx="6.675" cy="6.675" r="6.675" transform="translate(-24.964 248.57)"/><path class="b" d="M-20.566,255.811a2.32,2.32,0,0,1,2.319-2.32h0a2.32,2.32,0,0,1,2.32,2.32V259.5h-4.639Z"/><path class="c" d="M-19.236,257.628v-1.452a1.159,1.159,0,0,1,1.159-1.16h0"/><path class="c" d="M-21.974,255.043a2.955,2.955,0,0,1,2.217-2.919"/><path class="c" d="M-23.245,255.063a4.275,4.275,0,0,1,2.976-4.2"/><path class="c" d="M-14.593,255.043a2.955,2.955,0,0,0-2.217-2.919"/><path class="c" d="M-13.321,255.063a4.275,4.275,0,0,0-2.976-4.2"/><line class="d" x1="5.831" transform="translate(-21.162 259.504)"/></g></svg>