<svg xmlns="http://www.w3.org/2000/svg" width="19.91" height="18.852" viewBox="0 0 19.91 18.852"><defs><style>.a{fill:#fff;}</style></defs><g transform="translate(0 -13.611)"><g transform="translate(0 13.611)"><path class="a" d="M30.582,15.248a.723.723,0,0,0-.858.555L29.2,18.254a9.4,9.4,0,0,0-17.5,4.752.723.723,0,1,0,1.445,0,7.951,7.951,0,0,1,14.826-3.993L25.559,18.5a.723.723,0,0,0-.3,1.413l4.136.886a.723.723,0,0,0,.858-.555l.886-4.136A.723.723,0,0,0,30.582,15.248Z" transform="translate(-11.243 -13.611)"/><path class="a" d="M18.612,230.842a.723.723,0,0,0-.7.746A7.95,7.95,0,0,1,10.23,239.8c-.088,0-.176,0-.265,0a7.949,7.949,0,0,1-6.761-3.768l2.512.674a.723.723,0,0,0,.374-1.4l-4.086-1.1a.723.723,0,0,0-.885.511l-1.1,4.086a.723.723,0,1,0,1.4.374l.616-2.3a9.391,9.391,0,0,0,7.928,4.357c.1,0,.208,0,.313-.005a9.4,9.4,0,0,0,9.08-9.7A.722.722,0,0,0,18.612,230.842Z" transform="translate(0 -222.394)"/></g></g></svg>