<svg xmlns="http://www.w3.org/2000/svg" viewBox="0 0 32 32"><defs><style>.cls-1{fill:#b4b4b4;}</style></defs><title>main menu_map view_n</title><g id="color_sheme" data-name="color sheme"><path class="cls-1" d="M1.9,28.94a.56.56,0,0,1-.52-.69l2.9-11.19a.54.54,0,0,1,.42-.39L12,15.22a.49.49,0,0,1,.45.11.53.53,0,0,1,.2.42V26.94a.55.55,0,0,1-.47.54L2,28.93ZM5.25,17.67,2.64,27.74l8.88-1.27V16.41Zm6.82,9.27Z"/><path class="cls-1" d="M20.29,28.94a.52.52,0,0,1-.35-.14.53.53,0,0,1-.19-.41V17.2a.54.54,0,0,1,.44-.53l7.26-1.45a.53.53,0,0,1,.63.39L31,26.8a.57.57,0,0,1-.07.44.54.54,0,0,1-.38.24L20.37,28.93Zm.55-11.29V27.76l8.94-1.27L27.15,16.38Z"/><path class="cls-1" d="M20.41,28.94h-.09L12,27.48a.56.56,0,0,1-.45-.54V15.75a.55.55,0,0,1,.2-.42.54.54,0,0,1,.44-.12l2.45.43a.54.54,0,0,1-.19,1.07l-1.81-.31V26.48l7.26,1.26V17.66l-1-.18A.55.55,0,1,1,19,16.4l1.5.26a.56.56,0,0,1,.45.54V28.39a.55.55,0,0,1-.2.42A.54.54,0,0,1,20.41,28.94Z"/><path class="cls-1" d="M17,20.18a.53.53,0,0,1-.44-.23l-4.51-6.31,0,0A9.51,9.51,0,0,1,10.3,8.89a6.75,6.75,0,0,1,13.5,0c0,1.8-.49,2.54-1.8,4.5l-.09.12h0L17.48,20a.55.55,0,0,1-.44.23ZM13,13l4,5.67,4.07-5.91c1.28-1.9,1.62-2.42,1.62-3.89a5.66,5.66,0,0,0-11.32,0A9.16,9.16,0,0,0,13,13Zm8.48.19h0Z"/><path class="cls-1" d="M17.05,12.28a3.61,3.61,0,1,1,3.61-3.61A3.61,3.61,0,0,1,17.05,12.28Zm0-6.13a2.53,2.53,0,1,0,2.52,2.52A2.52,2.52,0,0,0,17.05,6.15Z"/></g></svg>