<svg id="_01" data-name="01" xmlns="http://www.w3.org/2000/svg" viewBox="0 0 32 32"><defs><style>.cls-1{fill:#fff;}</style></defs><title>main menu_setting_f</title><path class="cls-1" d="M9.54,29.14a4.27,4.27,0,0,1-3.22-1.38c-2.08-2.25-1-5.32-.92-5.45a.51.51,0,0,1,.17-.24l6.18-5.38-.39-.46a6.12,6.12,0,0,1-3.59.67.59.59,0,0,1-.4-.21L2.79,11.22a.6.6,0,0,1,0-.8L4.2,9a.59.59,0,0,1,.43-.19.76.76,0,0,1,.44.18l2.68,2.69,1.9-.74L10.38,9,7.6,6.29a.61.61,0,0,1,0-.84L9,3.91a.61.61,0,0,1,.84-.06l5.62,4.76a.61.61,0,0,1,.21.4A6.1,6.1,0,0,1,15,12.55l1.43,1.36L22.5,8.86l-.36-1.25a.63.63,0,0,1,.28-.7l3.5-2a.6.6,0,0,1,.73.09L29.17,7.5a.6.6,0,0,1,.09.73l-2,3.5a.62.62,0,0,1-.69.28l-1.4-.4L19.69,17l6.36,6a3.26,3.26,0,0,1,1,2.35,3.44,3.44,0,0,1-1,2.48,3.52,3.52,0,0,1-2.62,1,3,3,0,0,1-2.23-1.06L17.1,23,12,28.51a.46.46,0,0,1-.18.13A5.3,5.3,0,0,1,9.54,29.14Zm-3-6.27a4.34,4.34,0,0,0,.72,4.07,3.53,3.53,0,0,0,4,.66l5.14-5.53v0l-.81-.95c-1.26,1.27-4.7,5-4.73,5a1.56,1.56,0,0,1-1.12.46h0A2,2,0,0,1,8.29,26a1.75,1.75,0,0,1-.15-2.46h0s3.74-3.78,5.07-5.11l-.68-.79Zm5-8a.62.62,0,0,1,.47.22L22.13,27a1.86,1.86,0,0,0,1.36.63A2.31,2.31,0,0,0,25.2,27a2.24,2.24,0,0,0,.65-1.61,2,2,0,0,0-.64-1.48L13.84,13.1a.62.62,0,0,1-.1-.75,4.94,4.94,0,0,0,.74-3l-5-4.22-.62.67L11.52,8.4a.62.62,0,0,1,.14.66l-1,2.52a.57.57,0,0,1-.34.34l-2.53,1a.59.59,0,0,1-.64-.14L4.65,10.24l-.59.62,4.08,4.86a5,5,0,0,0,3-.78A.56.56,0,0,1,11.49,14.85ZM14,19.34c-1.39,1.38-5,5-5,5a.58.58,0,0,0,.14.75.74.74,0,0,0,.51.23h0a.36.36,0,0,0,.25-.08c.13-.14,3.6-3.89,4.81-5.1Zm3.34-4.59,1.47,1.39h0l5.73-5.64a.61.61,0,0,1,.6-.15l1.28.36L28,8,26.13,6.17,23.44,7.73l.34,1.17a.62.62,0,0,1-.2.64Z"/></svg>