<?xml version="1.0" encoding="utf-8"?>
<!-- Generator: Adobe Illustrator 23.0.1, SVG Export Plug-In . SVG Version: 6.00 Build 0)  -->
<svg version="1.1" id="Layer_1" xmlns="http://www.w3.org/2000/svg" xmlns:xlink="http://www.w3.org/1999/xlink" x="0px" y="0px"
	 viewBox="0 0 32 32" style="enable-background:new 0 0 32 32;" xml:space="preserve">
<style type="text/css">
	.st0{fill:#FFFFFF;}
</style>
<title>main menu_vehicle_n</title>
<g id="color_sheme">
	<path class="st0" d="M25.1,28H7.4c-1.7,0-3-1.3-3-3V4.7c0-1.4,0.9-2.6,2.2-2.9c6.3-1.8,13-1.8,19.3,0l0,0c1.3,0.4,2.3,1.6,2.3,2.9
		v20.2C28.2,26.6,26.9,28,25.1,28C25.2,28,25.2,28,25.1,28z M16.6,1.5c-3.3,0-6.5,0.4-9.7,1.3C6,3,5.5,3.8,5.4,4.7v20.2
		c0,1.1,0.9,2,2,2h17.8c1.1,0,2-0.9,2-2V4.7c0-0.9-0.7-1.7-1.6-1.9l0,0C22.7,1.9,19.6,1.5,16.6,1.5z"/>
	<rect x="4.7" y="5.8" class="st0" width="22.7" height="1.1"/>
	<path class="st0" d="M17.5,18.9c-4.2,0-8.4-0.5-12.6-1.4l0.3-1c4,0.9,8.2,1.4,12.3,1.4c6.9,0,10-1.4,10.1-1.4l0.4,1
		C27.9,17.5,24.6,18.9,17.5,18.9z"/>
	<path class="st0" d="M9.1,24.8c-1.4,0-2.6-1.2-2.6-2.6c0-1.4,1.2-2.6,2.6-2.6c1.4,0,2.6,1.2,2.6,2.6C11.7,23.7,10.5,24.8,9.1,24.8
		C9.1,24.8,9.1,24.8,9.1,24.8z M9.1,20.7c-0.9,0-1.5,0.7-1.5,1.5c0,0.9,0.7,1.6,1.5,1.6c0.9,0,1.6-0.7,1.6-1.6l0,0
		C10.6,21.4,9.9,20.7,9.1,20.7C9.1,20.7,9.1,20.7,9.1,20.7z"/>
	<path class="st0" d="M23.6,24.8c-1.4,0-2.6-1.2-2.6-2.6s1.2-2.6,2.6-2.6c1.4,0,2.6,1.2,2.6,2.6S25.1,24.8,23.6,24.8
		C23.6,24.8,23.6,24.8,23.6,24.8z M23.6,20.7c-0.9,0-1.6,0.7-1.6,1.5s0.7,1.6,1.5,1.6s1.6-0.7,1.6-1.5c0,0,0,0,0,0
		C25.2,21.4,24.5,20.7,23.6,20.7C23.6,20.7,23.6,20.7,23.6,20.7z"/>
	<path class="st0" d="M9.3,31.6H9c-0.7,0-1.2-0.6-1.2-1.2V27h2.9v3.4C10.6,31,10,31.6,9.3,31.6z M8.8,28v2.3c0,0.1,0.1,0.2,0.2,0.2
		c0,0,0,0,0,0h0.4c0.1,0,0.2-0.1,0.2-0.2l0,0V28H8.8z"/>
	<path class="st0" d="M24.3,31.6h-0.4c-0.7,0-1.2-0.6-1.2-1.2V27h2.8v3.4C25.5,31,24.9,31.6,24.3,31.6z M23.7,28v2.3
		c0,0.1,0.1,0.2,0.2,0.2c0,0,0,0,0,0h0.4c0.1,0,0.2-0.1,0.2-0.2l0,0V28H23.7z"/>
	<path class="st0" d="M28.5,13.2h-0.2c-0.6,0-1.1-0.5-1.1-1.1V9.4c0-0.6,0.5-1.1,1.1-1.1h0.2c0.6,0,1.1,0.5,1.1,1.1v2.7
		C29.6,12.7,29.1,13.2,28.5,13.2z M28.3,9.3C28.2,9.3,28.2,9.3,28.3,9.3l-0.1,2.8c0,0,0,0.1,0.1,0.1h0.2c0,0,0.1,0,0.1-0.1V9.4
		c0,0,0-0.1-0.1-0.1c0,0,0,0,0,0L28.3,9.3z"/>
	<path class="st0" d="M4.3,13.2H4.1c-0.6,0-1.1-0.5-1.1-1.1V9.4c0-0.6,0.5-1.1,1.1-1.2h0.2c0.6,0,1.2,0.5,1.2,1.1c0,0,0,0,0,0v2.7
		C5.4,12.7,4.9,13.2,4.3,13.2C4.3,13.2,4.3,13.2,4.3,13.2z M4.1,9.3C4.1,9.3,4,9.3,4.1,9.3C4,9.4,4,9.4,4.1,9.3L4,12.1
		c0,0,0,0.1,0.1,0.1h0.2c0,0,0.1,0,0.1-0.1V9.4c0,0,0-0.1-0.1-0.1c0,0,0,0,0,0H4.1z"/>
</g>
</svg>
