<svg id="_01" data-name="01" xmlns="http://www.w3.org/2000/svg" viewBox="0 0 32 32"><defs><style>.cls-1{fill:#b4b4b4;}</style></defs><title>main menu_setting_n</title><path class="cls-1" d="M10.2,29.14A4.28,4.28,0,0,1,7,27.76c-2.08-2.25-1-5.32-.92-5.45a.51.51,0,0,1,.17-.24l6.18-5.38L12,16.23a6.12,6.12,0,0,1-3.59.67.59.59,0,0,1-.4-.21L3.45,11.22a.6.6,0,0,1,0-.8L4.86,9a.59.59,0,0,1,.43-.19.71.71,0,0,1,.44.18l2.68,2.69,1.9-.74L11.05,9,8.26,6.29a.61.61,0,0,1,0-.84L9.65,3.91a.61.61,0,0,1,.84-.06l5.62,4.76a.61.61,0,0,1,.21.4,6.1,6.1,0,0,1-.64,3.54l1.43,1.36,6.05-5.05-.35-1.25a.61.61,0,0,1,.27-.7l3.5-2a.62.62,0,0,1,.74.09L29.83,7.5a.62.62,0,0,1,.1.73l-2,3.5a.61.61,0,0,1-.69.28l-1.4-.4L20.35,17l6.36,6a3.26,3.26,0,0,1,1,2.35,3.44,3.44,0,0,1-1,2.48,3.52,3.52,0,0,1-2.62,1,3,3,0,0,1-2.23-1.06L17.76,23l-5.14,5.53a.52.52,0,0,1-.17.13A5.39,5.39,0,0,1,10.2,29.14Zm-3-6.27a4.34,4.34,0,0,0,.72,4.07,3.53,3.53,0,0,0,4,.66L17,22.07v0l-.81-.95c-1.26,1.27-4.69,5-4.73,5a1.55,1.55,0,0,1-1.11.46h0A2,2,0,0,1,9,26a1.75,1.75,0,0,1-.15-2.46h0s3.74-3.78,5.07-5.11l-.67-.79Zm5-8a.61.61,0,0,1,.46.22L22.79,27a1.86,1.86,0,0,0,1.36.63A2.31,2.31,0,0,0,25.86,27a2.24,2.24,0,0,0,.65-1.61,2,2,0,0,0-.64-1.48L14.51,13.1a.61.61,0,0,1-.11-.75,4.94,4.94,0,0,0,.74-3l-5-4.22-.62.67L12.18,8.4a.62.62,0,0,1,.14.66l-1,2.52a.57.57,0,0,1-.34.34l-2.52,1a.6.6,0,0,1-.65-.14L5.31,10.24l-.59.62L8.8,15.72a5,5,0,0,0,3-.78A.62.62,0,0,1,12.16,14.85Zm2.5,4.49c-1.39,1.38-5,5-5,5a.57.57,0,0,0,.15.75.7.7,0,0,0,.5.23h0a.33.33,0,0,0,.24-.08c.13-.14,3.6-3.89,4.81-5.1ZM18,14.75l1.47,1.39h0l5.74-5.64a.58.58,0,0,1,.59-.15l1.28.36L28.64,8,26.79,6.17,24.1,7.73l.34,1.17a.62.62,0,0,1-.2.64Z"/></svg>