<svg xmlns="http://www.w3.org/2000/svg" viewBox="0 0 32 32"><defs><style>.cls-1{fill:#fff;}</style></defs><title>main menu_sign_f</title><g id="color_sheme" data-name="color sheme"><path class="cls-1" d="M28.62,25.88H7.73A1.72,1.72,0,0,1,6,24.16v-7.3a1.72,1.72,0,0,1,1.72-1.72H28.62a1.72,1.72,0,0,1,1.72,1.72v7.3A1.72,1.72,0,0,1,28.62,25.88ZM7.73,16.14a.72.72,0,0,0-.72.72v7.3a.72.72,0,0,0,.72.72H28.62a.72.72,0,0,0,.72-.72v-7.3a.72.72,0,0,0-.72-.72Z"/><path class="cls-1" d="M25.27,22.94a2.53,2.53,0,1,1,2.53-2.53A2.53,2.53,0,0,1,25.27,22.94Zm0-4.06a1.53,1.53,0,1,0,1.53,1.53A1.52,1.52,0,0,0,25.27,18.88Z"/><path class="cls-1" d="M18.15,22.94a2.53,2.53,0,1,1,2.53-2.53A2.53,2.53,0,0,1,18.15,22.94Zm0-4.06a1.53,1.53,0,1,0,1.53,1.53A1.53,1.53,0,0,0,18.15,18.88Z"/><path class="cls-1" d="M11,22.94a2.53,2.53,0,1,1,2.53-2.53A2.53,2.53,0,0,1,11,22.94Zm0-4.06a1.53,1.53,0,1,0,1.53,1.53A1.52,1.52,0,0,0,11,18.88Z"/><path class="cls-1" d="M28.37,10.33H4.05a.5.5,0,0,1-.5-.5.5.5,0,0,1,.5-.5H28.37a.51.51,0,0,1,.5.5A.5.5,0,0,1,28.37,10.33Z"/><path class="cls-1" d="M4,26.08a.5.5,0,0,1-.5-.5V7.44H2.32V25.58a.5.5,0,0,1-1,0V6.94a.5.5,0,0,1,.5-.5H4a.51.51,0,0,1,.5.5V25.58A.5.5,0,0,1,4,26.08Z"/><path class="cls-1" d="M25.17,16.11a.5.5,0,0,1-.5-.5V10.37a.51.51,0,0,1,.5-.51.5.5,0,0,1,.5.51v5.24A.5.5,0,0,1,25.17,16.11Z"/><path class="cls-1" d="M18.33,16.11a.5.5,0,0,1-.5-.5V10.37a.5.5,0,0,1,.5-.51.51.51,0,0,1,.5.51v5.24A.5.5,0,0,1,18.33,16.11Z"/><path class="cls-1" d="M10.87,16.11a.5.5,0,0,1-.5-.5V10.37a.51.51,0,0,1,.5-.51.5.5,0,0,1,.5.51v5.24A.5.5,0,0,1,10.87,16.11Z"/></g></svg>