<svg xmlns="http://www.w3.org/2000/svg" viewBox="0 0 32 32"><defs><style>.cls-1{fill:#fff;}</style></defs><title>main menu_equipment_f</title><g id="color_sheme" data-name="color sheme"><path class="cls-1" d="M26.4,29.79H5.11A1.42,1.42,0,0,1,3.7,28.37V25.71a.58.58,0,0,1,.58-.58h23a.58.58,0,0,1,.58.58v2.66A1.43,1.43,0,0,1,26.4,29.79ZM4.86,26.3v2.07a.25.25,0,0,0,.25.25H26.4a.26.26,0,0,0,.26-.25V26.3Z"/><path class="cls-1" d="M24,26.26H7.48A.58.58,0,0,1,7,26a.59.59,0,0,1-.12-.48L11.28,4.22a.57.57,0,0,1,.57-.47h7.82a.59.59,0,0,1,.57.47L24.6,25.56a.55.55,0,0,1-.12.48A.56.56,0,0,1,24,26.26ZM8.2,25.09H23.32L19.19,4.91H12.32Z"/><path class="cls-1" d="M10.73,12.46a.59.59,0,0,1-.53-.33.58.58,0,0,1,.27-.78l9.28-4.56a.58.58,0,0,1,.51,1L11,12.4A.57.57,0,0,1,10.73,12.46Z"/><path class="cls-1" d="M12.07,18.57a.57.57,0,0,1-.52-.33.57.57,0,0,1,.26-.78l9.28-4.56a.59.59,0,0,1,.52,1l-9.28,4.56A.62.62,0,0,1,12.07,18.57Z"/><path class="cls-1" d="M9.83,26.13a.57.57,0,0,1-.52-.32A.58.58,0,0,1,9.58,25l9.28-4.56a.58.58,0,0,1,.51,1.05l-9.28,4.56A.58.58,0,0,1,9.83,26.13Z"/></g></svg>