<svg xmlns="http://www.w3.org/2000/svg" width="28.1" height="26.3" viewBox="0 0 28.1 26.3"><defs><style>.a{fill:#b3b3b3;}.b{fill:none;stroke:#b3b3b3;stroke-linecap:round;stroke-linejoin:round;}</style></defs><g transform="translate(-1.8 -3)"><path class="a" d="M17.9,26.6H5a2.156,2.156,0,0,1-2.2-2.2V9.6A2.133,2.133,0,0,1,4.4,7.5a25.708,25.708,0,0,1,14.1,0h0a2.46,2.46,0,0,1,1.7,2.1V24.3A2.326,2.326,0,0,1,17.9,26.6ZM11.7,7.3a28.2,28.2,0,0,0-7.1.9,1.412,1.412,0,0,0-1,1.4V24.3a1.473,1.473,0,0,0,1.5,1.5h13a1.473,1.473,0,0,0,1.5-1.5V9.6a1.482,1.482,0,0,0-1.2-1.4h0A30.031,30.031,0,0,0,11.7,7.3Z"/><rect class="a" width="16.6" height="0.7" transform="translate(3 10.5)"/><path class="a" d="M12.4,20a40.526,40.526,0,0,1-9.2-1l.2-.7a38.806,38.806,0,0,0,9,1c5,0,7.3-1,7.3-1l.3.7A23.161,23.161,0,0,1,12.4,20Z"/><path class="a" d="M6.2,24.4a1.9,1.9,0,0,1,0-3.8,1.9,1.9,0,1,1,0,3.8Zm0-3a1.2,1.2,0,1,0,0,2.4,1.155,1.155,0,0,0,1.2-1.2h0A1.287,1.287,0,0,0,6.2,21.4Z"/><path class="a" d="M16.8,24.4a1.9,1.9,0,1,1,1.9-1.9,1.9,1.9,0,0,1-1.9,1.9Zm0-3A1.2,1.2,0,1,0,18,22.6h0A1.287,1.287,0,0,0,16.8,21.4Z"/><path class="a" d="M6.4,29.3H6.2a.9.9,0,0,1-.9-.9V25.9H7.4v2.5A1.158,1.158,0,0,1,6.4,29.3ZM6,26.7v1.7a.1.1,0,0,0,.1.1h.2a.1.1,0,0,0,.1-.1V26.7Z"/><path class="a" d="M17.3,29.3h-.2a.9.9,0,0,1-.9-.9V25.9h2.1v2.5C18.1,28.9,17.8,29.3,17.3,29.3Zm-.4-2.6v1.7a.1.1,0,0,0,.1.1h.2a.1.1,0,0,0,.1-.1V26.7Z"/><path class="a" d="M20.3,15.9h-.1a.86.86,0,0,1-.8-.8h0v-2a.86.86,0,0,1,.8-.8h.1a.86.86,0,0,1,.8.8h0v2c.1.4-.2.8-.8.8ZM20.1,13v2a.1.1,0,0,0,.1.1h.1a.1.1,0,0,0,.1-.1V13a.1.1,0,0,0-.1-.1A.349.349,0,0,0,20.1,13Z"/><path class="a" d="M2.7,15.9H2.6a.86.86,0,0,1-.8-.8h0v-2a.86.86,0,0,1,.8-.8h.1a.86.86,0,0,1,.8.8h0v2a.789.789,0,0,1-.8.8ZM2.5,13v2a.1.1,0,0,0,.1.1h.1a.1.1,0,0,0,.1-.1V13a.1.1,0,0,0-.1-.1C2.5,12.9,2.5,13,2.5,13Z"/><path class="b" d="M28.4,26.6"/><path class="b" d="M25.1,28.1l2.6-3.8V6.9a1.453,1.453,0,0,0-1.4-1.5h-14c-.7,0-1.2.3-1.3.9v.5"/><path class="b" d="M27.5,24.2l-3.4.3.7,3.6"/><line class="b" x2="2.9" transform="translate(22.1 10.6)"/><line class="b" x2="2.9" transform="translate(22.1 14.4)"/><line class="b" x2="2.9" transform="translate(22.1 17.8)"/><line class="b" x2="2.9" transform="translate(22.1 21.2)"/><line class="b" x2="4.4" transform="translate(20.5 28.1)"/><path class="b" d="M13.1,5a1.375,1.375,0,0,1,1.3-1.5H27.7a1.9,1.9,0,0,1,1.7,1.4V21.2l-1.9,3.1"/></g></svg>