<svg xmlns="http://www.w3.org/2000/svg" width="28.857" height="30.145" viewBox="0 0 28.857 30.145"><defs><style>.a{fill:#fff;stroke:rgba(0,0,0,0);}</style></defs><path class="a" d="M-3925.378-366.849l-3.279-3.279a2.5,2.5,0,0,1-1.2.3,2.512,2.512,0,0,1-2.509-2.509,2.493,2.493,0,0,1,.3-1.2l-3.422-3.422a3.262,3.262,0,0,1,.174-4.608l.344-.341a2.494,2.494,0,0,1-.305-1.2,2.513,2.513,0,0,1,2.51-2.509,2.494,2.494,0,0,1,1.217.316l3.105-3.078h-1.778a.535.535,0,0,1-.535-.534.535.535,0,0,1,.535-.534h3.813v3.689a.534.534,0,0,1-.535.534.534.534,0,0,1-.534-.534v-1.573l-3.073,3.046a2.491,2.491,0,0,1,.293,1.177,2.511,2.511,0,0,1-2.509,2.509,2.5,2.5,0,0,1-1.2-.3l-.368.365a1.834,1.834,0,0,0-.129,2.593l3.4,3.4a2.5,2.5,0,0,1,1.2-.3,2.513,2.513,0,0,1,2.51,2.51,2.49,2.49,0,0,1-.3,1.2l3.257,3.257a1.824,1.824,0,0,0,2.551-.132l2.439-2.462a3.235,3.235,0,0,1-.441-1.634,3.262,3.262,0,0,1,3.258-3.258,3.235,3.235,0,0,1,1.607.425l4.008-4.046a1.837,1.837,0,0,0,.132-2.6l-.657-.652a2.493,2.493,0,0,1-1.312.371,2.513,2.513,0,0,1-2.51-2.51,2.513,2.513,0,0,1,2.51-2.51,2.512,2.512,0,0,1,2.509,2.51,2.493,2.493,0,0,1-.244,1.078l.731.726a3.264,3.264,0,0,1-.171,4.609l-3.942,3.979a3.239,3.239,0,0,1,.594,1.874,3.261,3.261,0,0,1-3.257,3.257,3.24,3.24,0,0,1-1.849-.576l-2.377,2.4A3.207,3.207,0,0,1-3923.18-366,3.248,3.248,0,0,1-3925.378-366.849Zm6.6-5.258a2.192,2.192,0,0,0,2.189,2.189,2.191,2.191,0,0,0,2.188-2.189,2.191,2.191,0,0,0-2.188-2.189A2.192,2.192,0,0,0-3918.775-372.107Zm-12.52-.225a1.442,1.442,0,0,0,1.44,1.44,1.442,1.442,0,0,0,1.441-1.44,1.443,1.443,0,0,0-1.441-1.441A1.442,1.442,0,0,0-3931.3-372.332Zm-2.9-10.767a1.442,1.442,0,0,0,1.441,1.441,1.442,1.442,0,0,0,1.44-1.441,1.442,1.442,0,0,0-1.44-1.441A1.443,1.443,0,0,0-3934.2-383.1Zm19.951-1.275a1.443,1.443,0,0,0,1.441,1.441,1.442,1.442,0,0,0,1.44-1.441,1.442,1.442,0,0,0-1.44-1.441A1.443,1.443,0,0,0-3914.248-384.374Zm-13.222-3.979v-.017h-.017Zm1.469-3.532a3.262,3.262,0,0,1,3.258-3.258,3.262,3.262,0,0,1,3.258,3.258,3.262,3.262,0,0,1-3.258,3.258A3.262,3.262,0,0,1-3926-391.885Zm1.069,0a2.192,2.192,0,0,0,2.189,2.189,2.191,2.191,0,0,0,2.189-2.189,2.191,2.191,0,0,0-2.189-2.189A2.191,2.191,0,0,0-3924.932-391.885Z" transform="translate(3937.074 395.642)"/></svg>