<svg xmlns="http://www.w3.org/2000/svg" viewBox="0 0 32 32"><defs><style>.cls-1{fill:#b4b4b4;}</style></defs><title>main menu_sign_n</title><g id="color_sheme" data-name="color sheme"><path class="cls-1" d="M28.78,25.88H7.89a1.72,1.72,0,0,1-1.72-1.72v-7.3a1.72,1.72,0,0,1,1.72-1.72H28.78a1.72,1.72,0,0,1,1.72,1.72v7.3A1.72,1.72,0,0,1,28.78,25.88ZM7.89,16.14a.72.72,0,0,0-.72.72v7.3a.72.72,0,0,0,.72.72H28.78a.72.72,0,0,0,.72-.72v-7.3a.72.72,0,0,0-.72-.72Z"/><path class="cls-1" d="M25.44,22.94A2.53,2.53,0,1,1,28,20.41,2.53,2.53,0,0,1,25.44,22.94Zm0-4.06A1.53,1.53,0,1,0,27,20.41,1.52,1.52,0,0,0,25.44,18.88Z"/><path class="cls-1" d="M18.31,22.94a2.53,2.53,0,1,1,2.53-2.53A2.54,2.54,0,0,1,18.31,22.94Zm0-4.06a1.53,1.53,0,1,0,1.53,1.53A1.53,1.53,0,0,0,18.31,18.88Z"/><path class="cls-1" d="M11.19,22.94a2.53,2.53,0,1,1,2.52-2.53A2.53,2.53,0,0,1,11.19,22.94Zm0-4.06a1.53,1.53,0,1,0,1.52,1.53A1.52,1.52,0,0,0,11.19,18.88Z"/><path class="cls-1" d="M28.53,10.33H4.21a.5.5,0,0,1-.5-.5.51.51,0,0,1,.5-.5H28.53a.5.5,0,0,1,.5.5A.5.5,0,0,1,28.53,10.33Z"/><path class="cls-1" d="M4.19,26.08a.5.5,0,0,1-.5-.5V7.44H2.48V25.58a.5.5,0,0,1-.5.5.5.5,0,0,1-.5-.5V6.94a.51.51,0,0,1,.5-.5H4.19a.51.51,0,0,1,.5.5V25.58A.5.5,0,0,1,4.19,26.08Z"/><path class="cls-1" d="M25.33,16.11a.5.5,0,0,1-.5-.5V10.37a.51.51,0,0,1,.5-.51.5.5,0,0,1,.5.51v5.24A.5.5,0,0,1,25.33,16.11Z"/><path class="cls-1" d="M18.49,16.11a.5.5,0,0,1-.5-.5V10.37a.5.5,0,0,1,.5-.51.51.51,0,0,1,.5.51v5.24A.5.5,0,0,1,18.49,16.11Z"/><path class="cls-1" d="M11,16.11a.5.5,0,0,1-.5-.5V10.37a.51.51,0,0,1,.5-.51.5.5,0,0,1,.5.51v5.24A.5.5,0,0,1,11,16.11Z"/></g></svg>