<svg xmlns="http://www.w3.org/2000/svg" width="28.365" height="28.365" viewBox="0 0 28.365 28.365"><defs><style>.a{fill:#b3b3b3;}.b{fill:none;stroke:#b3b3b3;stroke-miterlimit:10;}</style></defs><g transform="translate(-0.625 -0.625)"><g transform="translate(1.722 7.699)"><g transform="translate(0 5.977)"><g transform="translate(0 4.109)"><path class="a" d="M16.088,25.163H3.014A1.236,1.236,0,0,1,1.8,23.949V22.268A3.248,3.248,0,0,1,5.068,19h8.965A3.248,3.248,0,0,1,17.3,22.268v1.681A1.236,1.236,0,0,1,16.088,25.163ZM5.068,19.84A2.472,2.472,0,0,0,2.64,22.268v1.681a.4.4,0,0,0,.374.374H16.088a.4.4,0,0,0,.374-.374V22.268a2.472,2.472,0,0,0-2.428-2.428Z" transform="translate(-1.8 -19)"/></g><g transform="translate(1.961)"><path class="a" d="M14.546,19.269l-.654-3.082a.9.9,0,0,0-.84-.654H6.235a.9.9,0,0,0-.84.654L4.74,19.269l-.84-.187L4.554,16a1.776,1.776,0,0,1,1.681-1.4h6.817A1.7,1.7,0,0,1,14.732,16l.654,3.082Z" transform="translate(-3.9 -14.6)"/></g><g transform="translate(1.588 9.525)"><path class="a" d="M5.088,27.321h-.28A1.277,1.277,0,0,1,3.5,26.014V24.8h.934v1.214a.5.5,0,0,0,.467.467h.374a.5.5,0,0,0,.467-.467V24.8h.934v1.214A1.775,1.775,0,0,1,5.088,27.321Z" transform="translate(-3.5 -24.8)"/></g><g transform="translate(11.019 9.525)"><path class="a" d="M15.188,27.321h-.28A1.277,1.277,0,0,1,13.6,26.014V24.8h.934v1.214a.5.5,0,0,0,.467.467h.374a.5.5,0,0,0,.467-.467V24.8h.934v1.214A1.686,1.686,0,0,1,15.188,27.321Z" transform="translate(-13.6 -24.8)"/></g><g transform="translate(1.027 4.576)"><path class="b" d="M2.9,19.5" transform="translate(-2.9 -19.5)"/></g><g transform="translate(0.747 2.988)"><path class="a" d="M3.814,19.481H3.44a.84.84,0,1,1,0-1.681h.374a.84.84,0,1,1,0,1.681ZM3.44,18.454a.187.187,0,1,0,0,.374h.374c.093-.093.093-.093.093-.187a.2.2,0,0,0-.187-.187Z" transform="translate(-2.6 -17.8)"/></g><g transform="translate(12.7 2.988)"><path class="a" d="M16.614,19.481H16.24a.84.84,0,1,1,0-1.681h.374a.837.837,0,0,1,.84.84C17.548,19.107,17.081,19.481,16.614,19.481Zm-.28-1.027a.187.187,0,1,0,0,.374h.374a.187.187,0,1,0,0-.374Z" transform="translate(-15.4 -17.8)"/></g><g transform="translate(1.681 6.443)"><path class="a" d="M4.907,24.115a1.307,1.307,0,0,1,0-2.615,1.307,1.307,0,0,1,0,2.615Zm0-1.774a.467.467,0,0,0,0,.934.467.467,0,0,0,0-.934Z" transform="translate(-3.6 -21.5)"/></g><g transform="translate(11.206 6.443)"><path class="a" d="M15.107,24.115a1.307,1.307,0,1,1,1.307-1.307A1.336,1.336,0,0,1,15.107,24.115Zm0-1.774a.467.467,0,1,0,.467.467A.441.441,0,0,0,15.107,22.34Z" transform="translate(-13.8 -21.5)"/></g></g><g transform="translate(6.49)"><g transform="translate(0 3.922)"><path class="a" d="M22.337,18.75H17.855a.467.467,0,1,1,0-.934h4.482a.4.4,0,0,0,.374-.374V15.855a2.511,2.511,0,0,0-2.521-2.521H11.318a2.551,2.551,0,0,0-1.774.747.462.462,0,0,1-.654-.654A3.391,3.391,0,0,1,11.318,12.4h8.871a3.348,3.348,0,0,1,3.362,3.362v1.588A1.188,1.188,0,0,1,22.337,18.75Z" transform="translate(-8.75 -12.4)"/></g><g transform="translate(1.167)"><path class="a" d="M20.832,12.869l-.654-3.082a.9.9,0,0,0-.84-.654H12.521a.9.9,0,0,0-.84.654l-.747,3.082L10,12.682,10.654,9.6a1.776,1.776,0,0,1,1.681-1.4h7a1.7,1.7,0,0,1,1.681,1.4l.654,3.082Z" transform="translate(-10 -8.2)"/></g><g transform="translate(10.319 9.525)"><path class="a" d="M21.481,20.921h-.374A1.277,1.277,0,0,1,19.8,19.614V18.4h.934v1.214a.5.5,0,0,0,.467.467h.374a.5.5,0,0,0,.467-.467V18.4h.934v1.214A1.585,1.585,0,0,1,21.481,20.921Z" transform="translate(-19.8 -18.4)"/></g><g transform="translate(0.42 4.576)"><path class="b" d="M9.2,13.1" transform="translate(-9.2 -13.1)"/></g><g transform="translate(0.047 2.988)"><path class="a" d="M10.014,13.081H9.64a.84.84,0,0,1,0-1.681h.374a.84.84,0,1,1,0,1.681ZM9.64,12.054a.187.187,0,0,0,0,.374h.374a.187.187,0,1,0,0-.374Z" transform="translate(-8.8 -11.4)"/></g><g transform="translate(12.093 2.988)"><path class="a" d="M22.914,13.081H22.54a.84.84,0,0,1,0-1.681h.374a.84.84,0,1,1,0,1.681Zm-.374-1.027a.187.187,0,0,0,0,.374h.374a.187.187,0,1,0,0-.374Z" transform="translate(-21.7 -11.4)"/></g><g transform="translate(10.506 6.443)"><path class="a" d="M21.307,17.715a1.307,1.307,0,1,1,1.307-1.307A1.277,1.277,0,0,1,21.307,17.715Zm0-1.774a.467.467,0,1,0,.467.467A.441.441,0,0,0,21.307,15.94Z" transform="translate(-20 -15.1)"/></g></g></g><g transform="translate(0.625 0.625)"><path class="a" d="M14.8,28.99a2.187,2.187,0,0,1-1.588-.654l-2.054-1.961a.462.462,0,0,1,.654-.654l2.054,1.961a1.354,1.354,0,0,0,1.961,0L27.776,15.73a1.2,1.2,0,0,0,.374-.934,1.659,1.659,0,0,0-.374-.934L15.73,1.909a1.247,1.247,0,0,0-1.868,0L1.909,13.862a1.247,1.247,0,0,0,0,1.868.462.462,0,0,1-.654.654,2.314,2.314,0,0,1,0-3.175L13.208,1.255a2.314,2.314,0,0,1,3.175,0L28.337,13.208A2.187,2.187,0,0,1,28.99,14.8a2.649,2.649,0,0,1-.654,1.588L16.383,28.337A2.187,2.187,0,0,1,14.8,28.99Z" transform="translate(-0.625 -0.625)"/></g></g></svg>