<svg xmlns="http://www.w3.org/2000/svg" viewBox="0 0 32 32"><defs><style>.cls-1{fill:#fff;}</style></defs><title>main menu_station_f</title><g id="color_sheme" data-name="color sheme"><path class="cls-1" d="M15.35,16.82H11.1a.55.55,0,0,1,0-1.1h4.25a.55.55,0,0,1,0,1.1Z"/><path class="cls-1" d="M27.82,21.25a.56.56,0,0,1-.54-.45,4.88,4.88,0,0,0-4.8-4H17.93a.55.55,0,0,1,0-1.1h4.55a6,6,0,0,1,5.88,4.88.55.55,0,0,1-.44.64Z"/><path class="cls-1" d="M22.48,27.67H21.43a.54.54,0,0,1-.54-.55.55.55,0,0,1,.54-.55h1.05a4.93,4.93,0,0,0,4.66-3.42.55.55,0,0,1,1.05.34A6,6,0,0,1,22.48,27.67Z"/><path class="cls-1" d="M18.85,27.67H10.61a.55.55,0,0,1-.52-.57.56.56,0,0,1,.58-.52h8.18a.55.55,0,0,1,.55.55A.55.55,0,0,1,18.85,27.67Z"/><path class="cls-1" d="M21.14,16.84H18a.55.55,0,1,1,0-1.1h3.12a.55.55,0,1,1,0,1.1Z"/><path class="cls-1" d="M15.13,16.84H9.76A6,6,0,0,1,4,12.42a.55.55,0,1,1,1.06-.28,4.89,4.89,0,0,0,4.71,3.6h5.37a.55.55,0,0,1,0,1.1Z"/><path class="cls-1" d="M4.45,10.27H4.33a.56.56,0,0,1-.42-.65A6,6,0,0,1,9.76,4.89h2a.55.55,0,1,1,0,1.09h-2A4.92,4.92,0,0,0,5,9.84.55.55,0,0,1,4.45,10.27Z"/><path class="cls-1" d="M21.6,6H14.91a.55.55,0,1,1,0-1.09h6.72a.55.55,0,0,1,.52.57A.56.56,0,0,1,21.6,6Z"/><path class="cls-1" d="M8.59,29.31A2.36,2.36,0,1,1,11,27,2.36,2.36,0,0,1,8.59,29.31Zm0-3.62A1.26,1.26,0,1,0,9.86,27,1.26,1.26,0,0,0,8.59,25.69Z"/><path class="cls-1" d="M20.27,28.84A1.72,1.72,0,1,1,22,27.12,1.72,1.72,0,0,1,20.27,28.84Zm0-2.33a.61.61,0,0,0-.62.61.62.62,0,0,0,1.24,0A.61.61,0,0,0,20.27,26.51Z"/><path class="cls-1" d="M27.91,23.7A1.72,1.72,0,1,1,29.63,22,1.72,1.72,0,0,1,27.91,23.7Zm0-2.33a.62.62,0,1,0,.62.62A.62.62,0,0,0,27.91,21.37Z"/><path class="cls-1" d="M16.71,18a1.72,1.72,0,1,1,1.71-1.71A1.72,1.72,0,0,1,16.71,18Zm0-2.33a.62.62,0,1,0,.62.62A.62.62,0,0,0,16.71,15.71Z"/><path class="cls-1" d="M4.33,12.67A1.72,1.72,0,1,1,6.05,11,1.72,1.72,0,0,1,4.33,12.67Zm0-2.33A.62.62,0,1,0,5,11,.61.61,0,0,0,4.33,10.34Z"/><path class="cls-1" d="M13.32,7.25A1.72,1.72,0,1,1,15,5.53,1.72,1.72,0,0,1,13.32,7.25Zm0-2.34a.62.62,0,1,0,.62.62A.62.62,0,0,0,13.32,4.91Z"/><path class="cls-1" d="M23.54,8a2.36,2.36,0,1,1,2.35-2.36A2.36,2.36,0,0,1,23.54,8Zm0-3.62A1.26,1.26,0,1,0,24.8,5.59,1.26,1.26,0,0,0,23.54,4.33Z"/></g></svg>