<svg xmlns="http://www.w3.org/2000/svg" width="29.365" height="29.608" viewBox="0 0 29.365 29.608"><defs><style>.a{fill:#b4b4b4;}</style></defs><g transform="translate(-1.131 -1.22)"><g transform="translate(5.486 12.595)"><path class="a" d="M26.872,26.442H6.131V22.273H7.148v3.152H25.855V12.92h1.017Z" transform="translate(-6.131 -12.92)"/></g><g transform="translate(5.486 3.05)"><path class="a" d="M7.148,16.338H6.131V3.02H26.872V7.086H25.855V4.036H7.148Z" transform="translate(-6.131 -3.02)"/></g><g transform="translate(4.994 1.22)"><path class="a" d="M26.889,2.237H5.423a.509.509,0,0,1,0-1.017H26.889a.509.509,0,0,1,0,1.017Z" transform="translate(-4.931 -1.22)"/></g><g transform="translate(1.131 6.281)"><g transform="translate(13.2)"><path class="a" d="M29.573,13.432H16.254a1.426,1.426,0,0,1-1.423-1.422V7.943A1.426,1.426,0,0,1,16.254,6.52H29.573A1.427,1.427,0,0,1,31,7.943V12.01A1.426,1.426,0,0,1,29.573,13.432Zm-13.319-6.1a.612.612,0,0,0-.61.611V12.01a.612.612,0,0,0,.61.61H29.573a.612.612,0,0,0,.61-.61V7.943a.612.612,0,0,0-.61-.611Z" transform="translate(-14.831 -6.52)"/></g><g transform="translate(0 9.353)"><path class="a" d="M15.568,22.633H2.554a1.427,1.427,0,0,1-1.423-1.424V17.142A1.426,1.426,0,0,1,2.554,15.72H15.568a1.425,1.425,0,0,1,1.422,1.422v4.067A1.362,1.362,0,0,1,15.568,22.633Zm-13.014-6.1a.611.611,0,0,0-.61.609v4.067a.612.612,0,0,0,.61.61H15.568a.556.556,0,0,0,.61-.61V17.142a.611.611,0,0,0-.61-.609Z" transform="translate(-1.131 -15.72)"/><g transform="translate(1.932 1.83)"><path class="a" d="M4.759,18.333a.915.915,0,1,1-.915.915.911.911,0,0,1,.915-.915m0-.813a1.728,1.728,0,0,0,0,3.457,1.782,1.782,0,0,0,1.728-1.728A1.714,1.714,0,0,0,4.759,17.52Z" transform="translate(-3.031 -17.52)"/></g><g transform="translate(6.1 1.83)"><path class="a" d="M8.859,18.333a.915.915,0,1,1-.915.915.911.911,0,0,1,.915-.915m0-.813a1.728,1.728,0,0,0,0,3.457,1.782,1.782,0,0,0,1.728-1.728A1.714,1.714,0,0,0,8.859,17.52Z" transform="translate(-7.131 -17.52)"/></g><g transform="translate(10.268 1.83)"><path class="a" d="M12.959,18.333a.915.915,0,1,1-.915.915.911.911,0,0,1,.915-.915m0-.813a1.728,1.728,0,1,0,1.728,1.728,1.714,1.714,0,0,0-1.728-1.728Z" transform="translate(-11.231 -17.52)"/></g></g><g transform="translate(15.624 1.728)"><path class="a" d="M18.659,9.033a.915.915,0,1,1-.915.915.911.911,0,0,1,.915-.915m0-.813a1.782,1.782,0,0,0-1.728,1.728,1.782,1.782,0,0,0,1.728,1.728,1.714,1.714,0,0,0,1.728-1.728A1.655,1.655,0,0,0,18.659,8.22Z" transform="translate(-16.931 -8.22)"/></g><g transform="translate(19.678 1.728)"><path class="a" d="M22.759,9.033a.915.915,0,1,1-.915.915.911.911,0,0,1,.915-.915m0-.813a1.782,1.782,0,0,0-1.728,1.728,1.728,1.728,0,1,0,3.457,0A1.714,1.714,0,0,0,22.759,8.22Z" transform="translate(-21.031 -8.22)"/></g><g transform="translate(23.773 1.728)"><path class="a" d="M26.959,9.033a.915.915,0,1,1-.915.915.911.911,0,0,1,.915-.915m0-.813a1.782,1.782,0,0,0-1.728,1.728,1.728,1.728,0,1,0,3.457,0A1.782,1.782,0,0,0,26.959,8.22Z" transform="translate(-25.231 -8.22)"/></g><g transform="translate(18.361 10.877)"><path class="a" d="M23.594,22.2H20.849a1.107,1.107,0,0,1-1.119-1.118V18.337a1.107,1.107,0,0,1,1.119-1.118h2.745a1.107,1.107,0,0,1,1.118,1.118v2.746A1.248,1.248,0,0,1,23.594,22.2Zm-2.745-4.168a.288.288,0,0,0-.305.3v2.746a.288.288,0,0,0,.305.3h2.742a.553.553,0,0,0,.308-.308V18.337a.288.288,0,0,0-.3-.3Z" transform="translate(-19.73 -17.219)"/></g><g transform="translate(15.02 12.809)"><rect class="a" width="4.067" height="0.814" transform="translate(0 0)"/></g><g transform="translate(20.719 6.812)"><rect class="a" width="0.814" height="4.067"/></g></g><g transform="translate(4.717 24.886)"><path class="a" d="M25.762,31.163H6.283a1.655,1.655,0,0,1-1.625-1.679V26.9A1.653,1.653,0,0,1,6.283,25.22H25.762A1.653,1.653,0,0,1,27.386,26.9v2.587A1.654,1.654,0,0,1,25.762,31.163ZM6.283,26.237a.651.651,0,0,0-.64.66v2.587a.652.652,0,0,0,.64.662H25.762a.652.652,0,0,0,.639-.662V26.9a.65.65,0,0,0-.639-.66Z" transform="translate(-4.658 -25.22)"/></g><g transform="translate(7.369 25.053)"><path class="a" d="M7.946,29.461a.509.509,0,0,1-.412-.806L9.743,25.6a.508.508,0,0,1,.824.6L8.358,29.25A.509.509,0,0,1,7.946,29.461Z" transform="translate(-7.438 -25.385)"/></g><g transform="translate(10.35 26.582)"><path class="a" d="M10.959,30.965a.509.509,0,0,1-.412-.806L12.756,27.1a.509.509,0,1,1,.825.6l-2.208,3.058A.512.512,0,0,1,10.959,30.965Z" transform="translate(-10.452 -26.889)"/></g><g transform="translate(14.764 25.054)"><path class="a" d="M15.421,29.461a.509.509,0,0,1-.412-.806L17.219,25.6a.508.508,0,1,1,.824.6L15.834,29.25A.512.512,0,0,1,15.421,29.461Z" transform="translate(-14.914 -25.385)"/></g><g transform="translate(22.313 25.054)"><path class="a" d="M23.055,29.461a.508.508,0,0,1-.412-.806L24.851,25.6a.509.509,0,0,1,.825.6L23.467,29.25A.512.512,0,0,1,23.055,29.461Z" transform="translate(-22.546 -25.385)"/></g><g transform="translate(17.744 26.582)"><path class="a" d="M18.436,30.965a.509.509,0,0,1-.413-.806L20.232,27.1a.509.509,0,1,1,.825.6l-2.208,3.058A.512.512,0,0,1,18.436,30.965Z" transform="translate(-17.927 -26.889)"/></g></g></svg>