<svg xmlns="http://www.w3.org/2000/svg" viewBox="0 0 32 32"><defs><style>.cls-1{fill:#fff;}</style></defs><title>main menu_map view_f</title><g id="color_sheme" data-name="color sheme"><path class="cls-1" d="M1.74,28.94a.56.56,0,0,1-.52-.69l2.9-11.19a.53.53,0,0,1,.42-.39l7.26-1.45a.5.5,0,0,1,.45.11.53.53,0,0,1,.2.42V26.94a.55.55,0,0,1-.47.54L1.82,28.93ZM5.09,17.67,2.47,27.74l8.89-1.27V16.41Zm6.82,9.27Z"/><path class="cls-1" d="M20.13,28.94a.5.5,0,0,1-.35-.14.53.53,0,0,1-.19-.41V17.2a.54.54,0,0,1,.44-.53l7.25-1.45a.54.54,0,0,1,.64.39l2.9,11.19a.54.54,0,0,1-.45.68L20.21,28.93Zm.55-11.29V27.76l8.93-1.27L27,16.38Z"/><path class="cls-1" d="M20.25,28.94h-.09l-8.35-1.45a.56.56,0,0,1-.45-.54V15.75a.54.54,0,0,1,.64-.54l2.45.43a.54.54,0,0,1-.19,1.07l-1.81-.31V26.48l7.26,1.26V17.66l-1-.18a.55.55,0,0,1,.18-1.08l1.5.26a.56.56,0,0,1,.45.54V28.39a.55.55,0,0,1-.2.42A.56.56,0,0,1,20.25,28.94Z"/><path class="cls-1" d="M16.87,20.18a.53.53,0,0,1-.44-.23l-4.51-6.31,0,0a9.51,9.51,0,0,1-1.75-4.71,6.75,6.75,0,0,1,13.5,0c0,1.8-.49,2.54-1.81,4.5l-.08.12h0L17.32,20a.55.55,0,0,1-.44.23ZM12.81,13l4,5.67,4.07-5.91c1.28-1.9,1.62-2.42,1.62-3.89a5.66,5.66,0,0,0-11.32,0A9.27,9.27,0,0,0,12.81,13Zm8.49.19Z"/><path class="cls-1" d="M16.89,12.28A3.61,3.61,0,1,1,20.5,8.67,3.61,3.61,0,0,1,16.89,12.28Zm0-6.13a2.53,2.53,0,1,0,2.52,2.52A2.52,2.52,0,0,0,16.89,6.15Z"/></g></svg>