<svg xmlns="http://www.w3.org/2000/svg" viewBox="0 0 32 32"><defs><style>.cls-1{fill:#b4b4b4;}</style></defs><title>main menu_station_n</title><g id="color_sheme" data-name="color sheme"><path class="cls-1" d="M15.34,16.82H11.1a.55.55,0,0,1,0-1.1h4.24a.55.55,0,0,1,0,1.1Z"/><path class="cls-1" d="M27.81,21.25a.54.54,0,0,1-.53-.45,4.89,4.89,0,0,0-4.8-4H17.93a.55.55,0,0,1,0-1.1h4.55a6,6,0,0,1,5.87,4.88.55.55,0,0,1-.43.64Z"/><path class="cls-1" d="M22.48,27.67H21.43a.55.55,0,0,1-.55-.55.55.55,0,0,1,.55-.55h1.05a4.91,4.91,0,0,0,4.65-3.42.56.56,0,0,1,.69-.35.55.55,0,0,1,.36.69A6,6,0,0,1,22.48,27.67Z"/><path class="cls-1" d="M18.85,27.67H10.61a.53.53,0,0,1-.52-.57.55.55,0,0,1,.57-.52h8.19a.55.55,0,0,1,.55.55A.55.55,0,0,1,18.85,27.67Z"/><path class="cls-1" d="M21.13,16.84H18a.55.55,0,0,1,0-1.1h3.12a.55.55,0,1,1,0,1.1Z"/><path class="cls-1" d="M15.13,16.84H9.75A6,6,0,0,1,4,12.42a.55.55,0,0,1,.39-.67.54.54,0,0,1,.67.39,4.9,4.9,0,0,0,4.71,3.6h5.38a.55.55,0,0,1,0,1.1Z"/><path class="cls-1" d="M4.45,10.27H4.33a.55.55,0,0,1-.42-.65A6,6,0,0,1,9.75,4.89h2a.55.55,0,0,1,0,1.09h-2A4.92,4.92,0,0,0,5,9.84.53.53,0,0,1,4.45,10.27Z"/><path class="cls-1" d="M21.6,6H14.91a.55.55,0,1,1,0-1.09h6.71a.53.53,0,0,1,.52.57A.55.55,0,0,1,21.6,6Z"/><path class="cls-1" d="M8.59,29.31A2.36,2.36,0,1,1,11,27,2.36,2.36,0,0,1,8.59,29.31Zm0-3.62a1.26,1.26,0,1,0,0,2.52,1.26,1.26,0,0,0,0-2.52Z"/><path class="cls-1" d="M20.26,28.84A1.72,1.72,0,1,1,22,27.12,1.72,1.72,0,0,1,20.26,28.84Zm0-2.33a.61.61,0,0,0-.62.61.62.62,0,0,0,1.24,0A.61.61,0,0,0,20.26,26.51Z"/><path class="cls-1" d="M27.91,23.7A1.72,1.72,0,1,1,29.62,22,1.72,1.72,0,0,1,27.91,23.7Zm0-2.33a.62.62,0,1,0,.62.62A.62.62,0,0,0,27.91,21.37Z"/><path class="cls-1" d="M16.7,18a1.72,1.72,0,1,1,1.72-1.71A1.72,1.72,0,0,1,16.7,18Zm0-2.33a.62.62,0,1,0,.62.62A.62.62,0,0,0,16.7,15.71Z"/><path class="cls-1" d="M4.33,12.67A1.72,1.72,0,1,1,6.05,11,1.72,1.72,0,0,1,4.33,12.67Zm0-2.33A.62.62,0,1,0,5,11,.62.62,0,0,0,4.33,10.34Z"/><path class="cls-1" d="M13.32,7.25A1.72,1.72,0,1,1,15,5.53,1.72,1.72,0,0,1,13.32,7.25Zm0-2.34a.62.62,0,1,0,.62.62A.62.62,0,0,0,13.32,4.91Z"/><path class="cls-1" d="M23.53,8a2.36,2.36,0,1,1,2.36-2.36A2.36,2.36,0,0,1,23.53,8Zm0-3.62a1.26,1.26,0,0,0,0,2.52,1.26,1.26,0,0,0,0-2.52Z"/></g></svg>