<?xml version="1.0" encoding="utf-8"?>
<!-- Generator: Adobe Illustrator 23.0.2, SVG Export Plug-In . SVG Version: 6.00 Build 0)  -->
<svg version="1.1" id="圖層_1" xmlns="http://www.w3.org/2000/svg" xmlns:xlink="http://www.w3.org/1999/xlink" x="0px" y="0px"
	 viewBox="0 0 32 32" style="enable-background:new 0 0 32 32;" xml:space="preserve">
<style type="text/css">
	.st0{fill:#FFFFFF;}
	.st1{fill:none;stroke:#B3B3B3;stroke-linecap:round;stroke-linejoin:round;stroke-miterlimit:10;}
	.st2{fill:none;stroke:#FFFFFF;stroke-linecap:round;stroke-linejoin:round;stroke-miterlimit:10;}
</style>
<title>main menu_vehicle event list_n</title>
<g>
	<g id="color_sheme_2_">
		<path class="st0" d="M17.9,26.6H5c-1.3,0-2.2-1-2.2-2.2V9.6c0-0.9,0.6-1.9,1.6-2.1c0.3-0.1,7.1-2.2,14.1,0l0,0
			c0.9,0.3,1.7,1.2,1.7,2.1v14.7C20.1,25.6,19.2,26.6,17.9,26.6z M11.7,7.3c-2.4,0-4.8,0.3-7.1,0.9c-0.6,0.2-1,0.7-1,1.4v14.7
			c0,0.8,0.6,1.5,1.5,1.5l0,0h13c0.8,0,1.5-0.6,1.5-1.5V9.6c0-0.6-0.5-1.3-1.2-1.4l0,0C16.2,7.7,14,7.3,11.7,7.3z"/>
		<rect x="3" y="10.5" class="st0" width="16.6" height="0.7"/>
		<path class="st0" d="M12.4,20c-3.1,0-6.2-0.3-9.2-1l0.2-0.7c2.9,0.7,6,1,9,1c5,0,7.3-1,7.3-1L20,19C19.9,19,17.5,20,12.4,20z"/>
		<path class="st0" d="M6.2,24.4c-1,0-1.9-0.8-1.9-1.9c0-1,0.8-1.9,1.9-1.9s1.9,0.8,1.9,1.9S7.3,24.4,6.2,24.4L6.2,24.4z M6.2,21.4
			c-0.6,0-1.2,0.5-1.2,1.2c0,0.6,0.5,1.2,1.2,1.2s1.2-0.5,1.2-1.2l0,0C7.3,21.9,6.8,21.4,6.2,21.4z"/>
		<path class="st0" d="M16.8,24.4c-1,0-1.9-0.8-1.9-1.9c0-1,0.8-1.9,1.9-1.9c1,0,1.9,0.8,1.9,1.9S17.8,24.4,16.8,24.4L16.8,24.4z
			 M16.8,21.4c-0.6,0-1.2,0.5-1.2,1.2c0,0.6,0.5,1.2,1.2,1.2c0.6,0,1.2-0.5,1.2-1.2l0,0C17.9,21.9,17.4,21.4,16.8,21.4z"/>
		<path class="st0" d="M6.4,29.3H6.2c-0.5,0-0.9-0.4-0.9-0.9v-2.5h2.1v2.5C7.3,28.9,6.8,29.3,6.4,29.3z M6,26.7v1.7
			c0,0.1,0.1,0.1,0.1,0.1h0.2c0.1,0,0.1-0.1,0.1-0.1v-1.7H6z"/>
		<path class="st0" d="M17.3,29.3h-0.2c-0.5,0-0.9-0.4-0.9-0.9v-2.5h2.1v2.5C18.1,28.9,17.8,29.3,17.3,29.3z M16.9,26.7v1.7
			c0,0.1,0.1,0.1,0.1,0.1h0.2c0.1,0,0.1-0.1,0.1-0.1v-1.7H16.9z"/>
		<path class="st0" d="M20.3,15.9h-0.1c-0.4,0-0.8-0.4-0.8-0.8l0,0v-2c0-0.4,0.4-0.8,0.8-0.8l0,0h0.1c0.4,0,0.8,0.4,0.8,0.8l0,0v2
			C21.2,15.5,20.9,15.9,20.3,15.9L20.3,15.9z M20.1,13l0,2c0,0,0,0.1,0.1,0.1h0.1c0,0,0.1,0,0.1-0.1v-2c0,0,0-0.1-0.1-0.1
			C20.2,12.9,20.1,13,20.1,13z"/>
		<path class="st0" d="M2.7,15.9H2.6c-0.4,0-0.8-0.4-0.8-0.8l0,0v-2c0-0.4,0.4-0.8,0.8-0.8l0,0h0.1c0.4,0,0.8,0.4,0.8,0.8l0,0v2
			C3.5,15.5,3.2,15.9,2.7,15.9L2.7,15.9z M2.5,13l0,2c0,0,0,0.1,0.1,0.1h0.1c0,0,0.1,0,0.1-0.1v-2c0,0,0-0.1-0.1-0.1
			C2.5,12.9,2.5,13,2.5,13z"/>
	</g>
	<path class="st1" d="M28.4,26.6"/>
	<path class="st2" d="M25.1,28.1l2.6-3.8V6.9c0-0.8-0.6-1.5-1.4-1.5H12.3c-0.7,0-1.2,0.3-1.3,0.9L11,6.8"/>
	<polyline class="st2" points="27.5,24.2 24.1,24.5 24.8,28.1 	"/>
	<line class="st2" x1="22.1" y1="10.6" x2="25" y2="10.6"/>
	<line class="st2" x1="22.1" y1="14.4" x2="25" y2="14.4"/>
	<line class="st2" x1="22.1" y1="17.8" x2="25" y2="17.8"/>
	<line class="st2" x1="22.1" y1="21.2" x2="25" y2="21.2"/>
	<line class="st2" x1="20.5" y1="28.1" x2="24.9" y2="28.1"/>
	<path class="st2" d="M13.1,5c0-0.8,0.5-1.5,1.3-1.5h13.3c0.8,0,1.4,0.6,1.7,1.4v16.3l-1.9,3.1"/>
</g>
</svg>
