<svg xmlns="http://www.w3.org/2000/svg" width="24.802" height="20.613" viewBox="0 0 24.802 20.613"><defs><style>.a{fill:#b4b4b4;}</style></defs><g transform="translate(3541.033 2154.964)"><path class="a" d="M-3517.722-2133.418h-21.819a1.493,1.493,0,0,1-1.492-1.492v-16.261a1.493,1.493,0,0,1,1.492-1.492h3.719a.588.588,0,0,1,.588.587.588.588,0,0,1-.588.588h-3.719a.317.317,0,0,0-.317.316v16.261a.317.317,0,0,0,.317.316h21.819a.317.317,0,0,0,.317-.316v-16.261a.317.317,0,0,0-.317-.316h-3.8a.589.589,0,0,1-.588-.588.588.588,0,0,1,.588-.587h3.8a1.494,1.494,0,0,1,1.492,1.492v16.261A1.494,1.494,0,0,1-3517.722-2133.418Z" transform="translate(0 -0.933)"/><path class="a" d="M-3520.094-2150.55h-10.757a2.209,2.209,0,0,1-2.207-2.207,2.209,2.209,0,0,1,2.207-2.207h10.757a2.21,2.21,0,0,1,2.208,2.207A2.21,2.21,0,0,1-3520.094-2150.55Zm-10.757-3.238a1.033,1.033,0,0,0-1.032,1.032,1.032,1.032,0,0,0,1.032,1.031h10.757a1.033,1.033,0,0,0,1.032-1.031,1.033,1.033,0,0,0-1.032-1.032Z" transform="translate(-3.233)"/><path class="a" d="M-3518-2131.654h-16.21a.588.588,0,0,1-.587-.588.587.587,0,0,1,.587-.587H-3518a.588.588,0,0,1,.587.587A.588.588,0,0,1-3518-2131.654Z" transform="translate(-2.529 -8.974)"/><path class="a" d="M-3518-2126.989h-16.21a.588.588,0,0,1-.587-.588.588.588,0,0,1,.587-.588H-3518a.588.588,0,0,1,.587.588A.588.588,0,0,1-3518-2126.989Z" transform="translate(-2.529 -10.866)"/><path class="a" d="M-3517.972-2139.14h-16.371a.588.588,0,0,1-.587-.588v-2.9a.588.588,0,0,1,.587-.588h16.371a.588.588,0,0,1,.588.588v2.9A.588.588,0,0,1-3517.972-2139.14Zm-15.783-1.175h15.2v-1.725h-15.2Z" transform="translate(-2.474 -4.763)"/></g></svg>