<svg xmlns="http://www.w3.org/2000/svg" viewBox="0 0 32.5 21"><defs><style>.a{fill:#646464;}.b{fill:none;stroke:#707070;}</style></defs><g transform="translate(-67 279.5)"><g transform="translate(30 -74)"><circle class="a" cx="2" cy="2" r="2" transform="translate(37 -205)"/><circle class="a" cx="2" cy="2" r="2" transform="translate(37 -197)"/><circle class="a" cx="2" cy="2" r="2" transform="translate(37 -189)"/></g><g transform="translate(75 -279)"><path class="b" d="M22.5,3H1.5A1.538,1.538,0,0,1,0,1.5H0A1.538,1.538,0,0,1,1.5,0h21A1.538,1.538,0,0,1,24,1.5h0A1.538,1.538,0,0,1,22.5,3Z"/><path class="b" d="M22.5,11.5H1.5A1.538,1.538,0,0,1,0,10H0A1.538,1.538,0,0,1,1.5,8.5h21A1.538,1.538,0,0,1,24,10h0A1.538,1.538,0,0,1,22.5,11.5Z"/><path class="b" d="M22.5,20H1.5A1.538,1.538,0,0,1,0,18.5H0A1.538,1.538,0,0,1,1.5,17h21A1.538,1.538,0,0,1,24,18.5h0A1.538,1.538,0,0,1,22.5,20Z"/></g></g></svg>