<svg xmlns="http://www.w3.org/2000/svg" viewBox="0 0 60 54"><defs><style>.cls-1{fill:none;stroke:#f14b4b;stroke-linecap:round;stroke-linejoin:round;stroke-width:4px;}.cls-2{fill:#f14b4b;}</style></defs><title>popup_alter icon</title><g id="color_sheme" data-name="color sheme"><path class="cls-1" d="M27.47,4.37,3.32,46.19a3.49,3.49,0,0,0,3,5.23h48.3a3.48,3.48,0,0,0,3-5.23L33.51,4.37A3.48,3.48,0,0,0,27.47,4.37Z"/><path class="cls-2" d="M30.44,46.36a2.62,2.62,0,0,1-2.68-2.81,2.67,2.67,0,0,1,2.68-2.81,2.74,2.74,0,0,1,2.77,2.81A2.68,2.68,0,0,1,30.44,46.36Zm0-29.78c1.19,0,2.5.26,2.55,1.49a15.56,15.56,0,0,1-.13,1.72c-.31,3.38-1.19,11.29-1.54,16.51H29.57c-.4-5.22-1.19-12.91-1.54-16.47-.05-.57-.13-1.36-.13-1.8C27.9,16.89,29.17,16.58,30.4,16.58Z"/></g></svg>