<?xml version="1.0" encoding="utf-8"?>
<!-- Generator: Adobe Illustrator 23.0.1, SVG Export Plug-In . SVG Version: 6.00 Build 0)  -->
<svg version="1.1" id="Layer_1" xmlns="http://www.w3.org/2000/svg" xmlns:xlink="http://www.w3.org/1999/xlink" x="0px" y="0px"
	 viewBox="0 0 75.2 65.8" style="enable-background:new 0 0 75.2 65.8;" xml:space="preserve">
<style type="text/css">
	.st0{fill:#FAA41A;}
</style>
<g id="Group_1480" transform="translate(0 -32.211)">
	<g id="Group_1479" transform="translate(0 32.211)">
		<g id="Group_1478" transform="translate(0 0)">
			<path id="Path_401" class="st0" d="M6,28.1c0.4,0.2,0.8,0.2,1.2,0l12.2-5.6c0.8-0.4,1.1-1.3,0.7-2.1c0,0,0,0,0,0
				c-0.4-0.8-1.3-1.1-2-0.8l-8.6,3.9C15.1,7.7,32.3-0.7,48.1,4.8c9.5,3.3,16.7,11,19.4,20.7c0.2,0.8,1.1,1.3,1.9,1.1
				c0.8-0.2,1.3-1.1,1.1-1.9C65.6,6.8,47.3-3.7,29.5,1.2C18.8,4.1,10.3,12.1,6.7,22.5l-3.6-9c-0.3-0.8-1.2-1.3-2-1
				c-0.8,0.3-1.3,1.2-1,2c0,0.1,0,0.1,0.1,0.2l5,12.5C5.3,27.6,5.6,27.9,6,28.1z"/>
			<path id="Path_402" class="st0" d="M75.1,51.2C75.1,51.2,75.1,51.1,75.1,51.2l-5-12.6c-0.2-0.4-0.5-0.7-0.9-0.9
				c-0.4-0.2-0.8-0.1-1.2,0l-12.2,5.6c-0.8,0.3-1.2,1.3-0.8,2.1c0.3,0.8,1.3,1.2,2.1,0.8l0.1,0l8.6-3.9C60.2,58.1,43,66.4,27.2,61
				c-9.5-3.3-16.7-11-19.3-20.7c-0.2-0.8-1.1-1.3-1.9-1.1c-0.8,0.2-1.3,1.1-1.1,1.9l0,0c4.8,17.8,23.2,28.3,41,23.5
				C56.5,61.7,65,53.7,68.6,43.3l3.6,9c0.3,0.8,1.2,1.2,2,0.9C75,52.9,75.4,52,75.1,51.2L75.1,51.2z"/>
		</g>
	</g>
</g>
</svg>
