<svg xmlns="http://www.w3.org/2000/svg" width="52.5" height="63.3" viewBox="0 0 52.5 63.3"><defs><style>.a{fill:#1384d7;}</style></defs><g transform="translate(0 0)"><path class="a" d="M61.7,15.2h0a.9.9,0,0,0-.1-.5h0a1.38,1.38,0,0,0-.3-.4h0L48.7,1.3h0a1.284,1.284,0,0,0-1-.4H23.2a4.951,4.951,0,0,0-5,5v4.7h-4a4.951,4.951,0,0,0-5,5V59.2a4.951,4.951,0,0,0,5,5H47.7a4.951,4.951,0,0,0,5-5V54.9a.6.6,0,0,0-.1-.4h4.1a4.951,4.951,0,0,0,5-5V15.2Zm-14,46.2H14.2A2.22,2.22,0,0,1,12,59.2V15.5a2.22,2.22,0,0,1,2.2-2.2h4V49.5a4.951,4.951,0,0,0,5,5H50c0,.1-.1.3-.1.4v4.3A2.22,2.22,0,0,1,47.7,61.4Zm9-9.7H23.2A2.22,2.22,0,0,1,21,49.5V5.8a2.22,2.22,0,0,1,2.2-2.2H46.3V15.1a1.367,1.367,0,0,0,1.4,1.4H58.9V49.4A2.242,2.242,0,0,1,56.7,51.7ZM49.1,13.8V5.7L57,13.8Z" transform="translate(-9.2 -0.9)"/><path class="a" d="M30.4,22.5a2.55,2.55,0,0,0-5.1-.1,2.58,2.58,0,0,0,1.9,2.5v2.7a2.556,2.556,0,0,0-1.9,3.1,2.613,2.613,0,0,0,1.9,1.9v2.7a2.556,2.556,0,0,0-1.9,3.1,2.613,2.613,0,0,0,1.9,1.9V43a2.571,2.571,0,1,0,3.1,1.9A2.467,2.467,0,0,0,28.4,43V40.3a2.556,2.556,0,0,0,1.9-3.1,2.613,2.613,0,0,0-1.9-1.9V32.6a2.556,2.556,0,0,0,1.9-3.1,2.613,2.613,0,0,0-1.9-1.9V24.9A2.535,2.535,0,0,0,30.4,22.5Zm-3.9,0a1.415,1.415,0,0,1,1.3-1.4,1.43,1.43,0,0,1,1.4,1.4,1.415,1.415,0,0,1-1.3,1.4h0A1.5,1.5,0,0,1,26.5,22.5Zm2.7,22.7a1.351,1.351,0,1,1-1.4-1.3h0a1.347,1.347,0,0,1,1.4,1.3Zm0-7.6a1.4,1.4,0,0,1-2.8,0,1.43,1.43,0,0,1,1.4-1.4,1.5,1.5,0,0,1,1.4,1.4Zm0-7.5a1.43,1.43,0,0,1-1.4,1.4,1.367,1.367,0,0,1-1.4-1.4,1.347,1.347,0,0,1,1.4-1.3,1.236,1.236,0,0,1,1.4,1.3Z" transform="translate(-9.2 -0.9)"/><path class="a" d="M35.9,22.6h18a.752.752,0,0,0,.7-.5c.1-.3-.2-.6-.5-.7H35.9a.545.545,0,0,0-.5.7A.472.472,0,0,0,35.9,22.6Z" transform="translate(-9.2 -0.9)"/><path class="a" d="M53.9,29.4h-18a.545.545,0,0,0-.5.7.472.472,0,0,0,.5.5h18a.608.608,0,0,0,.2-1.2Z" transform="translate(-9.2 -0.9)"/><path class="a" d="M53.9,37h-18a.6.6,0,1,0,0,1.2h18a.6.6,0,0,0,0-1.2Z" transform="translate(-9.2 -0.9)"/><path class="a" d="M53.9,44.3h-18a.545.545,0,0,0-.5.7.472.472,0,0,0,.5.5h18a.608.608,0,0,0,.2-1.2Z" transform="translate(-9.2 -0.9)"/></g></svg>