<?xml version="1.0" encoding="utf-8"?>
<!-- Generator: Adobe Illustrator 23.0.3, SVG Export Plug-In . SVG Version: 6.00 Build 0)  -->
<svg version="1.1" id="Layer_1" xmlns="http://www.w3.org/2000/svg" xmlns:xlink="http://www.w3.org/1999/xlink" x="0px" y="0px"
	 viewBox="0 0 64 64" style="enable-background:new 0 0 64 64;" xml:space="preserve">
<style type="text/css">
	.st0{fill:none;stroke:#FF9226;stroke-width:4;stroke-linecap:round;stroke-linejoin:round;stroke-miterlimit:10;}
	.st1{enable-background:new    ;}
	.st2{fill:#FF9226;}
</style>
<g id="popup_question_icon" transform="translate(-930 -442.75)">
	<circle id="Ellipse_24" class="st0" cx="962" cy="474.8" r="30"/>
	<g class="st1">
		<path class="st2" d="M967.9,463.3c0-3.6-2.2-6.5-6.5-6.5c-3,0-5.6,1.4-7.7,3.8l-3.1-2.9c2.8-3.2,6.6-5.5,11.5-5.5
			c6.8,0,11.2,4.1,11.2,10.7c0,8.8-10.8,12.4-9.7,21.8h-4.9C957.3,474.3,967.9,470.5,967.9,463.3z M957.3,494.6c0-2.5,1.8-4.3,4-4.3
			c2.2,0,4,1.8,4,4.3c0,2.5-1.8,4.1-4,4.1C959.1,498.8,957.3,497.1,957.3,494.6z"/>
	</g>
</g>
</svg>
