<svg xmlns="http://www.w3.org/2000/svg" xmlns:xlink="http://www.w3.org/1999/xlink" viewBox="0 0 30 30"><defs><style>.cls-1{fill:url(#未命名漸層_60);}.cls-2{fill:#fff;}</style><linearGradient id="未命名漸層_60" x1="5.26" y1="4.14" x2="24.44" y2="25.92" gradientUnits="userSpaceOnUse"><stop offset="0" stop-color="#72bfd5"/><stop offset="1" stop-color="#0094fc"/></linearGradient></defs><title>map_cctv</title><g id="color_sheme" data-name="color sheme"><circle class="cls-1" cx="14.77" cy="14.93" r="14"/><path class="cls-2" d="M23,7H22a.36.36,0,0,0-.35.36v8.47l-4.08,1.5A2.12,2.12,0,0,0,16,16.59l-.54-1.51-2.34.84L13.91,18a2.13,2.13,0,0,0,3.83,1.81l3.88-1.38V23a.35.35,0,0,0,.35.35H23a.35.35,0,0,0,.35-.35V7.35A.36.36,0,0,0,23,7Z"/><path class="cls-2" d="M19.67,12.8a.35.35,0,0,0,.21-.46l-.75-2.08a3.82,3.82,0,0,1-1.52,1L8.93,14.44a3.81,3.81,0,0,1-1.33.24l-.49,0,.63,1.74.13.33a.34.34,0,0,0,.18.21.4.4,0,0,0,.15,0l.12,0Z"/><path class="cls-2" d="M6.3,14.45l-.15,0a3.73,3.73,0,0,1-1.47-1l-.59.22a.34.34,0,0,0-.21.45l1,2.67a.37.37,0,0,0,.18.21.4.4,0,0,0,.15,0l.12,0,1.34-.49A.35.35,0,0,0,6.85,16Z"/><path class="cls-2" d="M8.68,13.77l8.69-3.16a3.21,3.21,0,0,0,2.1-3,3.39,3.39,0,0,0-.19-1.1.37.37,0,0,0-.46-.21l-14,5.1a.36.36,0,0,0-.21.46,3.17,3.17,0,0,0,1.83,1.88,2.64,2.64,0,0,0,.61.17A2.76,2.76,0,0,0,7.6,14,3,3,0,0,0,8.68,13.77Z"/></g></svg>