<svg xmlns="http://www.w3.org/2000/svg" xmlns:xlink="http://www.w3.org/1999/xlink" viewBox="0 0 30 30"><defs><style>.cls-1{fill:url(#未命名漸層_19);}.cls-2{fill:#fff;}</style><linearGradient id="未命名漸層_19" x1="5.26" y1="4.31" x2="24.44" y2="26.08" gradientUnits="userSpaceOnUse"><stop offset="0" stop-color="#509df6"/><stop offset="0.11" stop-color="#4796f7"/><stop offset="0.7" stop-color="#1674fb"/><stop offset="1" stop-color="#0367fd"/></linearGradient></defs><title>map_vehicle</title><g id="color_sheme" data-name="color sheme"><circle class="cls-1" cx="14.77" cy="15.1" r="14"/><path class="cls-2" d="M22,10.6a6.51,6.51,0,0,0-.73-2.93c-1.5-1.77-12-1.9-13.16,0a8.52,8.52,0,0,0-.63,2.93.89.89,0,0,0-.78.88V13.2a.89.89,0,0,0,.58.84c-.08,2.71,0,5.54.1,7,0,1.08.73.9.73.9h.69v1.18a1,1,0,0,0,1.07.84A1,1,0,0,0,11,23.07V21.89h8v1.18a1.1,1.1,0,0,0,2.14,0V21.89h.23s.85.12.91-.39c0-1.4.09-4.51,0-7.45a.88.88,0,0,0,.63-.85V11.48A.89.89,0,0,0,22,10.6ZM10.68,7.92h8V9.14h-8Zm.11,12.59a1.15,1.15,0,1,1,1.15-1.14A1.14,1.14,0,0,1,10.79,20.51Zm7.89,0a1.15,1.15,0,1,1,1.14-1.14A1.14,1.14,0,0,1,18.68,20.51Zm1.45-5H9.27V9.81H20.13Z"/></g></svg>