<svg xmlns="http://www.w3.org/2000/svg" viewBox="0 0 32 27"><defs><style>.cls-1{fill:#fff;}</style></defs><title>map_full route</title><g id="color_sheme" data-name="color sheme"><path class="cls-1" d="M10.93,25.78H1a.65.65,0,0,1-.65-.64v-6.8a.65.65,0,0,1,1.29,0V24.5h9.31a.64.64,0,0,1,0,1.28Z"/><path class="cls-1" d="M1,10.75a.65.65,0,0,1-.65-.65V2.45A.65.65,0,0,1,1,1.81H10.9a.64.64,0,0,1,0,1.28H1.62v7A.65.65,0,0,1,1,10.75Z"/><path class="cls-1" d="M31.19,25.78h-10a.64.64,0,0,1,0-1.28h9.31V18.34a.64.64,0,0,1,.64-.64.64.64,0,0,1,.64.64v6.8A.64.64,0,0,1,31.19,25.78Z"/><path class="cls-1" d="M31.19,10.75a.65.65,0,0,1-.64-.65v-7H21.26a.64.64,0,0,1-.64-.64.64.64,0,0,1,.64-.64h9.93a.64.64,0,0,1,.64.64V10.1A.64.64,0,0,1,31.19,10.75Z"/><rect class="cls-1" x="6.83" y="7.73" width="18.69" height="12.34" rx="0.86" ry="0.86"/></g></svg>