<svg xmlns="http://www.w3.org/2000/svg" xmlns:xlink="http://www.w3.org/1999/xlink" viewBox="0 0 30 30"><defs><style>.cls-1{fill:url(#未命名漸層_18);}.cls-2{fill:#fff;}</style><linearGradient id="未命名漸層_18" x1="5.26" y1="4.49" x2="24.44" y2="26.27" gradientUnits="userSpaceOnUse"><stop offset="0" stop-color="#62d795"/><stop offset="0.26" stop-color="#46cc7e"/><stop offset="0.76" stop-color="#15b958"/><stop offset="1" stop-color="#02b249"/></linearGradient></defs><title>map_bus stop</title><g id="color_sheme" data-name="color sheme"><circle class="cls-1" cx="14.77" cy="15.29" r="14"/><path class="cls-2" d="M24.13,19a1.63,1.63,0,0,0-1.3-1.59,4.45,4.45,0,0,0-4-2.27H16.16a1.62,1.62,0,0,0-3.11,0H9.76a3.57,3.57,0,0,1-2.82-1.28,1.62,1.62,0,0,0-.07-2.81A3.51,3.51,0,0,1,9.76,9.69h1.06a1.62,1.62,0,0,0,2.88,0h4a2,2,0,1,0-.07-1H13.86a1.62,1.62,0,0,0-3.19,0H9.76a4.48,4.48,0,0,0-4,2.28,1.62,1.62,0,0,0,.09,3.18,4.49,4.49,0,0,0,3.92,2.1h3.33a1.64,1.64,0,0,0,1.52,1.05,1.61,1.61,0,0,0,1.51-1.06h2.7a3.53,3.53,0,0,1,2.91,1.39A1.63,1.63,0,0,0,20.88,19a1.6,1.6,0,0,0,.77,1.37,3.51,3.51,0,0,1-2.46,1.27,1.62,1.62,0,0,0-3.1,0H11.41a2,2,0,1,0,0,1h4.71a1.62,1.62,0,0,0,3,0,4.44,4.44,0,0,0,3.59-2.09A1.62,1.62,0,0,0,24.13,19Z"/></g></svg>