<svg xmlns="http://www.w3.org/2000/svg" xmlns:xlink="http://www.w3.org/1999/xlink" viewBox="0 0 30 30"><defs><style>.cls-1{fill:url(#未命名漸層_29);}.cls-2{fill:#fff;}</style><linearGradient id="未命名漸層_29" x1="5.26" y1="4.17" x2="24.44" y2="25.94" gradientUnits="userSpaceOnUse"><stop offset="0" stop-color="#f5ed7d"/><stop offset="1" stop-color="#d5ba04"/></linearGradient></defs><title>map_sign</title><g id="color_sheme" data-name="color sheme"><circle class="cls-1" cx="14.77" cy="14.96" r="14"/><path class="cls-2" d="M24.68,12.58H9.09a.9.9,0,0,0-.9.91v5.44a.9.9,0,0,0,.9.91H24.68a.9.9,0,0,0,.9-.91V13.49A.9.9,0,0,0,24.68,12.58ZM11.94,18.2a1.91,1.91,0,1,1,1.9-1.9A1.9,1.9,0,0,1,11.94,18.2Zm5.22,0a1.91,1.91,0,1,1,1.91-1.9A1.9,1.9,0,0,1,17.16,18.2Zm5.23,0a1.91,1.91,0,1,1,1.9-1.9A1.91,1.91,0,0,1,22.39,18.2Z"/><path class="cls-2" d="M24.46,10.16h-18A.55.55,0,0,1,6,9.61a.55.55,0,0,1,.55-.55h18a.55.55,0,0,1,.56.55A.56.56,0,0,1,24.46,10.16Z"/><polyline class="cls-2" points="4.85 21.35 4.85 7.45 6.49 7.45 6.49 21.35"/><path class="cls-2" d="M22.1,12.88a.55.55,0,0,1-.55-.55V10a.56.56,0,1,1,1.11,0v2.32A.55.55,0,0,1,22.1,12.88Z"/><path class="cls-2" d="M17,12.88a.54.54,0,0,1-.55-.55V10A.55.55,0,0,1,17,9.45a.56.56,0,0,1,.55.56v2.32A.55.55,0,0,1,17,12.88Z"/><path class="cls-2" d="M11.44,12.88a.54.54,0,0,1-.55-.55V10a.55.55,0,0,1,.55-.56A.56.56,0,0,1,12,10v2.32A.55.55,0,0,1,11.44,12.88Z"/></g></svg>