<svg xmlns="http://www.w3.org/2000/svg" xmlns:xlink="http://www.w3.org/1999/xlink" viewBox="0 0 30 30"><defs><style>.cls-1{fill:url(#未命名漸層_34);}.cls-2{fill:#fff;}</style><linearGradient id="未命名漸層_34" x1="5.26" y1="4.34" x2="24.44" y2="26.12" gradientUnits="userSpaceOnUse"><stop offset="0" stop-color="#f6b250"/><stop offset="1" stop-color="#fd7f03"/></linearGradient></defs><title>map_construction</title><g id="color_sheme" data-name="color sheme"><circle class="cls-1" cx="14.77" cy="15.14" r="14"/><path class="cls-2" d="M22,20.66H7.62a.41.41,0,0,0-.42.41v2a1,1,0,0,0,1,1H21.4a1,1,0,0,0,1-1v-2A.41.41,0,0,0,22,20.66Z"/><path class="cls-2" d="M18.2,5.61a.42.42,0,0,0-.41-.34H12.9a.42.42,0,0,0-.41.34l-.87,4.93L18.4,6.72Z"/><path class="cls-2" d="M13.11,16.35a.84.84,0,0,1-.73-.43.83.83,0,0,1,.33-1.14l6.48-3.56-.48-2.75-7.47,4.21L9.77,21a.41.41,0,0,0,.09.34.41.41,0,0,0,.32.15h.88a.31.31,0,0,1-.07-.09.84.84,0,0,1,.31-1.14L17.1,17a.84.84,0,1,1,.82,1.46l-5.4,3.05h8a.39.39,0,0,0,.32-.15.38.38,0,0,0,.09-.34L19.5,13l-6,3.29A.86.86,0,0,1,13.11,16.35Z"/></g></svg>