<svg xmlns="http://www.w3.org/2000/svg" viewBox="0 0 38 38"><defs><style>.cls-1{fill:#fff;}</style></defs><title>side menu_vehicle</title><g id="color_sheme" data-name="color sheme"><path class="cls-1" d="M29.52,33.19h-21A3.58,3.58,0,0,1,5,29.62V5.69A3.59,3.59,0,0,1,7.59,2.24C8,2.1,19-1.29,30.36,2.22h0a3.72,3.72,0,0,1,2.73,3.47V29.62A3.57,3.57,0,0,1,29.52,33.19ZM19.42,1.92A42.91,42.91,0,0,0,7.94,3.45,2.34,2.34,0,0,0,6.21,5.69V29.62a2.31,2.31,0,0,0,2.31,2.31h21a2.31,2.31,0,0,0,2.31-2.31V5.69A2.41,2.41,0,0,0,30,3.43h0A35.64,35.64,0,0,0,19.42,1.92Z"/><rect class="cls-1" x="5.37" y="6.95" width="26.88" height="1.26"/><path class="cls-1" d="M20.49,22.49A64.09,64.09,0,0,1,5.63,20.78L6,19.57a63.57,63.57,0,0,0,14.53,1.66c8.13,0,11.89-1.61,11.93-1.63l.51,1.15C32.77,20.82,28.93,22.49,20.49,22.49Z"/><path class="cls-1" d="M10.49,29.5a3.09,3.09,0,1,1,3.09-3.09A3.09,3.09,0,0,1,10.49,29.5Zm0-4.91a1.83,1.83,0,1,0,1.83,1.82A1.83,1.83,0,0,0,10.49,24.59Z"/><path class="cls-1" d="M27.7,29.5a3.09,3.09,0,1,1,3.09-3.09A3.09,3.09,0,0,1,27.7,29.5Zm0-4.91a1.83,1.83,0,1,0,1.83,1.82A1.83,1.83,0,0,0,27.7,24.59Z"/><path class="cls-1" d="M10.83,37.46h-.42A1.47,1.47,0,0,1,8.94,36V32H12.3v4A1.47,1.47,0,0,1,10.83,37.46Zm-.63-4.2V36a.21.21,0,0,0,.21.21h.42A.21.21,0,0,0,11,36V33.26Z"/><path class="cls-1" d="M28.47,37.46h-.42A1.47,1.47,0,0,1,26.58,36V32h3.36v4A1.47,1.47,0,0,1,28.47,37.46Zm-.63-4.2V36a.21.21,0,0,0,.21.21h.42a.21.21,0,0,0,.21-.21V33.26Z"/><path class="cls-1" d="M33.46,15.77h-.22a1.36,1.36,0,0,1-1.36-1.36V11.25a1.36,1.36,0,0,1,1.36-1.36h.22a1.36,1.36,0,0,1,1.36,1.36v3.16A1.36,1.36,0,0,1,33.46,15.77Zm-.22-4.62a.1.1,0,0,0-.1.1v3.16a.11.11,0,0,0,.1.1h.22a.1.1,0,0,0,.1-.1V11.25a.09.09,0,0,0-.1-.1Z"/><path class="cls-1" d="M4.8,15.77H4.58a1.36,1.36,0,0,1-1.36-1.36V11.25A1.36,1.36,0,0,1,4.58,9.89H4.8a1.36,1.36,0,0,1,1.36,1.36v3.16A1.36,1.36,0,0,1,4.8,15.77Zm-.22-4.62a.1.1,0,0,0-.1.1v3.16a.11.11,0,0,0,.1.1H4.8a.1.1,0,0,0,.1-.1V11.25a.09.09,0,0,0-.1-.1Z"/></g></svg>