<svg xmlns="http://www.w3.org/2000/svg" width="25.739" height="42.583" viewBox="0 0 25.739 42.583"><defs><style>.a{fill:#fff;}</style></defs><g transform="translate(-8.03 -1.247)"><path class="a" d="M33.769,14.12A12.869,12.869,0,1,0,18.65,26.788V38.628H18.5l-1.468,4.44a8.1,8.1,0,0,0,3.907.746,7.578,7.578,0,0,0,3.824-.746l-1.6-4.44h-.107V26.788A12.87,12.87,0,0,0,33.769,14.12ZM23.3,42.392a10.617,10.617,0,0,1-2.368.26,11.382,11.382,0,0,1-2.368-.272l.841-2.545h2.984ZM9.178,14.12a11.674,11.674,0,1,1,0,.047ZM21.918,38.5H19.834V26.93H21.87Z"/><path class="a" d="M23.861,20.969v1.184a.746.746,0,0,0,.746.746h.107a.746.746,0,0,0,.746-.746V20.969a2.1,2.1,0,0,0,1.681-2.06V13h.142a.711.711,0,0,0,.71-.71h0V10.136a.711.711,0,0,0-.71-.71H27.14V7.543a2.227,2.227,0,0,0-1.977-2.084,20.758,20.758,0,0,0-4.925-.639,21.235,21.235,0,0,0-5.138.627c-1.764.367-1.965,1.468-1.965,2.1V9.461a.559.559,0,0,0-.154,0,.711.711,0,0,0-.71.71h0v2.19a.711.711,0,0,0,.71.71h0a.559.559,0,0,0,.154,0v5.861a2.108,2.108,0,0,0,2.107,2.107h.107v1.184a.746.746,0,0,0,.746.746H16.2a.746.746,0,0,0,.746-.746V21.04Zm3.3-10.833a.119.119,0,0,1,.118-.118h0a.106.106,0,0,1,.118.094.087.087,0,0,1,0,.025v2.19c0,.13-.237.13-.237,0ZM13.04,12.326c0,.13-.237.13-.237,0v-2.19a.118.118,0,1,1,.237,0Zm11.674,9.981h-.107a.154.154,0,0,1-.154-.154V20.969h.414v1.184A.154.154,0,0,1,24.713,22.307ZM14.058,8.822h12.1v5.221a29.083,29.083,0,0,1-6.145.722A32.281,32.281,0,0,1,13.987,14Zm1.29-2.451a19.853,19.853,0,0,1,4.89-.6,20.547,20.547,0,0,1,4.736.616,1.292,1.292,0,0,1,1.184,1.184v.308H14.022V7.543c0-.225,0-.912,1.29-1.172ZM14.022,18.862v-3.9a31.776,31.776,0,0,0,6.026.746,29.46,29.46,0,0,0,6.109-.7v3.848a1.184,1.184,0,0,1-1.184,1.184H15.182A1.184,1.184,0,0,1,14.022,18.862ZM16.3,22.153a.154.154,0,0,1-.154.154h-.107a.154.154,0,0,1-.154-.154V20.969H16.3Z" transform="translate(0.78 0.657)"/><path class="a" d="M15.732,14.27a1.492,1.492,0,1,0,1.492,1.492A1.492,1.492,0,0,0,15.732,14.27Zm0,2.368a.636.636,0,1,1,.024.024h-.024Z" transform="translate(1.142 2.395)"/><path class="a" d="M24.034,15.764a1.492,1.492,0,1,0-1.5,1.48h.012A1.491,1.491,0,0,0,24.034,15.764Zm-1.492.888a.9.9,0,1,1,.206,0A.857.857,0,0,1,22.542,16.652Z" transform="translate(2.395 2.394)"/></g></svg>