<svg xmlns="http://www.w3.org/2000/svg" viewBox="0 0 34 26"><defs><style>.cls-1{fill:#fff;}</style></defs><title>side menu_cctv_full screen</title><g id="_02地圖檢視" data-name="02地圖檢視"><path class="cls-1" d="M31.56,24.87H17a.65.65,0,0,1,0-1.3H30.91V2.38H2.8V13a.65.65,0,0,1-1.3,0V1.73a.65.65,0,0,1,.65-.65H31.56a.65.65,0,0,1,.65.65V24.22A.65.65,0,0,1,31.56,24.87Z"/><path class="cls-1" d="M13.18,25.08h-11a.65.65,0,0,1-.65-.65V15.79a.65.65,0,0,1,.65-.65h11a.65.65,0,0,1,.65.65v8.64A.65.65,0,0,1,13.18,25.08ZM2.8,23.79h9.73V16.43H2.8Z"/><path class="cls-1" d="M28.53,11a.65.65,0,0,1-.65-.65V5.19H22.69a.65.65,0,1,1,0-1.3h5.84a.65.65,0,0,1,.65.65v5.84A.65.65,0,0,1,28.53,11Z"/><path class="cls-1" d="M21.18,12.76a.61.61,0,0,1-.45-.19.64.64,0,0,1,0-.91l7.18-7.4a.65.65,0,0,1,.92,0,.64.64,0,0,1,0,.91l-7.18,7.4A.63.63,0,0,1,21.18,12.76Z"/></g></svg>