<svg xmlns="http://www.w3.org/2000/svg" viewBox="0 0 38 38"><defs><style>.cls-1{fill:#fff;}</style></defs><title>side menu_sign</title><g id="color_sheme" data-name="color sheme"><path class="cls-1" d="M35.34,31.81H8.68a2.2,2.2,0,0,1-2.19-2.2V20.3a2.2,2.2,0,0,1,2.19-2.2H35.34a2.2,2.2,0,0,1,2.19,2.2v9.31A2.2,2.2,0,0,1,35.34,31.81ZM8.68,19.38a.92.92,0,0,0-.92.92v9.31a.92.92,0,0,0,.92.92H35.34a.92.92,0,0,0,.91-.92V20.3a.92.92,0,0,0-.91-.92Z"/><path class="cls-1" d="M31.07,28.05a3.23,3.23,0,1,1,3.22-3.22A3.23,3.23,0,0,1,31.07,28.05Zm0-5.17a1.95,1.95,0,1,0,2,1.95A1.95,1.95,0,0,0,31.07,22.88Z"/><path class="cls-1" d="M22,28.05a3.23,3.23,0,1,1,3.23-3.22A3.23,3.23,0,0,1,22,28.05Zm0-5.17a1.95,1.95,0,1,0,2,1.95A2,2,0,0,0,22,22.88Z"/><path class="cls-1" d="M12.88,28.05a3.23,3.23,0,1,1,3.23-3.22A3.22,3.22,0,0,1,12.88,28.05Zm0-5.17a1.95,1.95,0,1,0,1.95,1.95A2,2,0,0,0,12.88,22.88Z"/><path class="cls-1" d="M35,12H4A.64.64,0,1,1,4,10.7H35A.64.64,0,1,1,35,12Z"/><path class="cls-1" d="M4,32.06a.64.64,0,0,1-.64-.63V8.28H1.78V31.43a.64.64,0,0,1-1.28,0V7.65A.64.64,0,0,1,1.14,7H4a.63.63,0,0,1,.64.64V31.43A.63.63,0,0,1,4,32.06Z"/><path class="cls-1" d="M30.94,19.35a.64.64,0,0,1-.64-.64V12a.64.64,0,0,1,.64-.64.64.64,0,0,1,.64.64v6.7A.64.64,0,0,1,30.94,19.35Z"/><path class="cls-1" d="M22.2,19.35a.64.64,0,0,1-.64-.64V12a.64.64,0,0,1,1.28,0v6.7A.64.64,0,0,1,22.2,19.35Z"/><path class="cls-1" d="M12.69,19.35a.64.64,0,0,1-.64-.64V12a.64.64,0,1,1,1.28,0v6.7A.64.64,0,0,1,12.69,19.35Z"/></g></svg>