<svg xmlns="http://www.w3.org/2000/svg" viewBox="0 0 18 22"><defs><style>.cls-1{fill:#ce4242;}</style></defs><title>side bar_delete_f_1</title><g id="color_sheme" data-name="color sheme"><path class="cls-1" d="M16.85,2H11.38a.2.2,0,0,0,0-.07V1A.39.39,0,0,0,11,.58H7.14a.4.4,0,0,0-.4.4V2s0,0,0,.07H1.29a.39.39,0,0,0-.4.39v1a.39.39,0,0,0,.4.39H16.85a.38.38,0,0,0,.39-.39v-1A.38.38,0,0,0,16.85,2Z"/><path class="cls-1" d="M15.31,5.06H2.82a.7.7,0,0,0-.7.71v15a.7.7,0,0,0,.7.71H15.31a.71.71,0,0,0,.71-.71v-15A.71.71,0,0,0,15.31,5.06ZM6.06,18.92a.69.69,0,0,1-.7.69H4.64a.69.69,0,0,1-.7-.69V8.41a.7.7,0,0,1,.7-.7h.72a.7.7,0,0,1,.7.7Zm4.16,0a.7.7,0,0,1-.7.69H8.79a.69.69,0,0,1-.69-.69V8.41a.7.7,0,0,1,.69-.7h.73a.71.71,0,0,1,.7.7Zm4.15,0a.69.69,0,0,1-.7.69H13a.69.69,0,0,1-.7-.69V8.41a.7.7,0,0,1,.7-.7h.72a.7.7,0,0,1,.7.7Z"/></g></svg>