<svg xmlns="http://www.w3.org/2000/svg" viewBox="0 0 38 38"><defs><style>.cls-1{fill:#fff;}</style></defs><title>side menu_accident</title><g id="color_sheme" data-name="color sheme"><path class="cls-1" d="M34.59,35.73H3.54A3,3,0,0,1,.91,31.18L16.44,4.29a3,3,0,0,1,5.26,0L37.22,31.18a3,3,0,0,1-2.63,4.55ZM19.07,4.36a1.42,1.42,0,0,0-1.25.72h0L2.29,32a1.44,1.44,0,0,0,1.25,2.16H34.59a1.45,1.45,0,0,0,1.26-.72,1.43,1.43,0,0,0,0-1.44L20.32,5.08A1.43,1.43,0,0,0,19.07,4.36Zm-1.94.32Z"/><path class="cls-1" d="M19,31.69a1.68,1.68,0,0,1-1.72-1.81A1.71,1.71,0,0,1,19,28.07a1.76,1.76,0,0,1,1.78,1.81A1.73,1.73,0,0,1,19,31.69Zm0-19.15c.76,0,1.61.17,1.64,1a8.32,8.32,0,0,1-.09,1.1c-.19,2.17-.76,7.26-1,10.62H18.47c-.25-3.36-.76-8.3-1-10.59,0-.37-.09-.88-.09-1.16C17.4,12.73,18.22,12.54,19,12.54Z"/></g></svg>