<svg xmlns="http://www.w3.org/2000/svg" width="28.583" height="32.801" viewBox="0 0 28.583 32.801"><defs><style>.a{fill:#fff;}</style></defs><g transform="translate(-5.165 -3.153)"><path class="a" d="M13.17,20a2.25,2.25,0,1,0,.02,0Zm0,3.64a1.38,1.38,0,1,1,0-2.76,1.481,1.481,0,0,1,1.38,1.38,1.39,1.39,0,0,1-1.38,1.4h0Z"/><path class="a" d="M25.85,20a2.26,2.26,0,1,0,2.25,2.27v-.01A2.25,2.25,0,0,0,25.86,20Zm0,3.64a1.38,1.38,0,1,1,1.38-1.38h0a1.39,1.39,0,0,1-1.38,1.4h0Z"/><path class="a" d="M31.12,13.37V11a1.079,1.079,0,0,0-1-1h-.25V6.85a2.8,2.8,0,0,0-2-2.51,30.79,30.79,0,0,0-16.93,0A2.57,2.57,0,0,0,9,6.85V10H8.78a1.079,1.079,0,0,0-1,1v2.38a1.079,1.079,0,0,0,1,1h.25V24.54a2.65,2.65,0,0,0,2.64,2.63H12v2.14a1.139,1.139,0,0,0,1.13,1.13h.26a1.32,1.32,0,0,0,1.12-1.13V27.17H25.09v2.14a1.139,1.139,0,0,0,1.13,1.13h.25c.63,0,1-.51,1.13-1.13V27.14a2.551,2.551,0,0,0,2.26-2.6V14.35h.25A1,1,0,0,0,31.12,13.37ZM13.43,29.31a.12.12,0,0,1-.12.12h-.26s-.13,0-.13-.12v-2h.51ZM29,13.37v3.91a25.878,25.878,0,0,1-8.4,1.11A44.488,44.488,0,0,1,9.91,17.16V8.73H29ZM11.17,5.22A32.169,32.169,0,0,1,19.7,4.09a27.088,27.088,0,0,1,7.9,1.13A1.731,1.731,0,0,1,29,6.85v1H9.91v-1A1.73,1.73,0,0,1,11.17,5.22ZM8.91,13.37H8.78a.12.12,0,0,1-.12-.12l.12-2.39c-.12.13-.12,0,0,0L9,10.74v2.51A.12.12,0,0,1,8.91,13.37ZM26.47,29.31a.12.12,0,0,1-.12.12H26.1s-.13,0-.13-.12v-2h.5Zm.76-3H11.67a1.72,1.72,0,0,1-1.76-1.679q0-.041,0-.081V18.09a46.492,46.492,0,0,0,10.67,1.18,29.615,29.615,0,0,0,8.4-1v6.29a1.72,1.72,0,0,1-1.7,1.74h-.05Zm3-15.44v2.39c0,.12-.13.12-.13.12H30a.121.121,0,0,1-.13-.11v-.01l.13-2.4.25-.12Z"/><path class="a" d="M8.45,26.44a.529.529,0,0,0-.673.329l-.007.021L5.19,35a.551.551,0,0,0,.359.69h0a.43.43,0,0,0,.16,0,.53.53,0,0,0,.52-.38l2.58-8.16a.539.539,0,0,0-.316-.695A.325.325,0,0,0,8.45,26.44Z"/><path class="a" d="M33.72,34.79,31.42,27a.55.55,0,0,0-1.05.31l2.3,7.77a.55.55,0,0,0,.52.4.392.392,0,0,0,.16,0,.54.54,0,0,0,.378-.664Z"/><path class="a" d="M19.64,28.21a.54.54,0,0,0-.55.53v2.08a.55.55,0,0,0,1.09.148.524.524,0,0,0,0-.148V28.75a.54.54,0,0,0-.54-.54Z"/><path class="a" d="M19.64,32.72a.54.54,0,0,0-.55.53v2.08a.55.55,0,0,0,1.09.148.524.524,0,0,0,0-.148V33.26A.54.54,0,0,0,19.64,32.72Z"/></g></svg>