<svg xmlns="http://www.w3.org/2000/svg" width="33.54" height="29.584" viewBox="0 0 33.54 29.584"><defs><style>.a{fill:#fff;stroke:rgba(0,0,0,0);}</style></defs><g transform="translate(-1.795 -3.901)"><path class="a" d="M27.354,26.718H21.905a2.219,2.219,0,0,1-4.191,0H11.988a3.645,3.645,0,0,1-3.838-3.4V20.9H2.929l.889,1a.73.73,0,1,1-1.091.971L.476,20.338,2.718,17.5a.731.731,0,1,1,1.148.9l-.818,1.035h5.1V15.251a2.22,2.22,0,0,1,0-4.2v-.169A3.469,3.469,0,0,1,11.8,7.634h3.586a2.22,2.22,0,0,1,4.165,0H21.9V5.106a1.944,1.944,0,0,0-2.1-1.725H15.267a2.22,2.22,0,0,1-4.192,0H5.2a2.652,2.652,0,1,1,0-1.46h5.875a2.22,2.22,0,0,1,4.192,0h4.526a3.393,3.393,0,0,1,3.563,3.185V7.634h5.1l-.87-.983a.73.73,0,0,1,1.094-.968l2.258,2.549L28.891,10.82a.731.731,0,0,1-1.148-.905l.647-.819H23.356v4.248a2.219,2.219,0,0,1,0,4.192v.105a3.475,3.475,0,0,1-3.65,3.259H16.434a2.22,2.22,0,0,1-4.191,0H9.611v2.415a2.2,2.2,0,0,0,2.377,1.942h5.726a2.219,2.219,0,0,1,4.191,0h5.417a2.652,2.652,0,1,1,.031,1.461Zm.855-.785a1.679,1.679,0,1,0,1.677-1.678A1.679,1.679,0,0,0,28.209,25.932Zm-9.645.054a1.245,1.245,0,1,0,1.245-1.245A1.247,1.247,0,0,0,18.564,25.987Zm-5.472-5.818a1.246,1.246,0,1,0,1.246-1.245A1.248,1.248,0,0,0,13.092,20.169Zm6.614-.73a2.024,2.024,0,0,0,2.19-1.8v-.105a2.22,2.22,0,0,1,0-4.192V9.1H19.578a2.22,2.22,0,0,1-4.216,0H11.8a2.019,2.019,0,0,0-2.19,1.781v.182a2.22,2.22,0,0,1,0,4.178v4.2h2.632a2.22,2.22,0,0,1,4.192,0Zm1.676-4a1.245,1.245,0,1,0,1.243-1.246A1.246,1.246,0,0,0,21.382,15.44ZM7.616,13.148A1.245,1.245,0,1,0,8.862,11.9,1.249,1.249,0,0,0,7.616,13.148ZM16.224,8.4a1.246,1.246,0,1,0,1.245-1.245A1.247,1.247,0,0,0,16.224,8.4ZM.974,2.652A1.678,1.678,0,1,0,2.653.974,1.68,1.68,0,0,0,.974,2.652Zm10.95,0a1.246,1.246,0,1,0,1.247-1.245A1.247,1.247,0,0,0,11.925,2.652Z" transform="translate(2.295 4.401)"/></g></svg>