<svg xmlns="http://www.w3.org/2000/svg" width="29.228" height="27.89" viewBox="0 0 29.228 27.89"><defs><style>.a{fill:#fff;}</style></defs><g transform="translate(-4.54 -5.66)"><path class="a" d="M9.62,8.22a2.54,2.54,0,1,0-3.13,2.45v2.68a2.53,2.53,0,0,0,0,4.92v2.67a2.53,2.53,0,0,0,0,4.92v2.68a2.54,2.54,0,1,0,1.19,0V25.86a2.53,2.53,0,0,0,0-4.92V18.27a2.53,2.53,0,0,0,0-4.92V10.67A2.521,2.521,0,0,0,9.62,8.22Zm-3.89,0A1.35,1.35,0,1,1,7.08,9.57h0A1.349,1.349,0,0,1,5.73,8.22ZM8.43,31a1.35,1.35,0,1,1-1.36-1.34h.01a1.34,1.34,0,0,1,1.35,1.33Zm0-7.59a1.34,1.34,0,1,1,0-.02v.02Zm0-7.59a1.345,1.345,0,1,1,0-.01Z"/><path class="a" d="M15.07,8.39h18a.6.6,0,0,0,.155-1.19.575.575,0,0,0-.155,0h-18a.6.6,0,0,0,0,1.19Z"/><path class="a" d="M33.09,15.15h-18a.6.6,0,0,0,0,1.19h18a.6.6,0,0,0,.155-1.19A.575.575,0,0,0,33.09,15.15Z"/><path class="a" d="M33.09,22.79h-18a.59.59,0,1,0,0,1.18h18a.59.59,0,1,0,0-1.18Z"/><path class="a" d="M33.09,30.05h-18a.6.6,0,0,0,0,1.19h18a.6.6,0,0,0,.155-1.19A.575.575,0,0,0,33.09,30.05Z"/></g></svg>
