<svg xmlns="http://www.w3.org/2000/svg" viewBox="0 0 18 22"><defs><style>.cls-1{fill:#fff;}</style></defs><title>side bar_list_delete</title><g id="color_sheme" data-name="color sheme"><path class="cls-1" d="M16.85,1.76H11.38a.2.2,0,0,0,0-.07v-1A.39.39,0,0,0,11,.31H7.14a.4.4,0,0,0-.4.4v1s0,0,0,.07H1.29a.39.39,0,0,0-.4.39v1a.4.4,0,0,0,.4.4H16.85a.39.39,0,0,0,.39-.4v-1A.38.38,0,0,0,16.85,1.76Z"/><path class="cls-1" d="M15.31,4.79H2.82a.7.7,0,0,0-.7.71v15a.7.7,0,0,0,.7.71H15.31a.71.71,0,0,0,.71-.71V5.5A.71.71,0,0,0,15.31,4.79ZM6.06,18.65a.7.7,0,0,1-.7.7H4.64a.7.7,0,0,1-.7-.7V8.14a.7.7,0,0,1,.7-.7h.72a.7.7,0,0,1,.7.7Zm4.16,0a.71.71,0,0,1-.7.7H8.79a.7.7,0,0,1-.69-.7V8.14a.7.7,0,0,1,.69-.7h.73a.71.71,0,0,1,.7.7Zm4.15,0a.7.7,0,0,1-.7.7H13a.7.7,0,0,1-.7-.7V8.14a.7.7,0,0,1,.7-.7h.72a.7.7,0,0,1,.7.7Z"/></g></svg>