<svg xmlns="http://www.w3.org/2000/svg" viewBox="0 0 38 38"><defs><style>.cls-1{fill:#fff;}</style></defs><title>side menu_cctv</title><g id="_02地圖檢視" data-name="02地圖檢視"><path class="cls-1" d="M18.85,25.4a.61.61,0,0,1-.56-.4c-.19-.54-1.28-3.41-1.5-4l1.11-.44-.56.21.56-.2c.22.58,1.31,3.46,1.51,4a.59.59,0,0,1-.36.76A.65.65,0,0,1,18.85,25.4Z"/><path class="cls-1" d="M35.44,35H33.5a1.25,1.25,0,0,1-1.24-1.25V26.29l-7.14,2.44a.59.59,0,1,1-.4-1.11c.8-.29,7.65-2.63,7.94-2.73a.6.6,0,0,1,.79.57v8.25s0,.06,0,.06h1.94s.05,0,.05-.06V5.08A.06.06,0,0,0,35.44,5H33.5a.06.06,0,0,0,0,.06V20.6a.61.61,0,0,1-.39.56l-7.28,2.67a.59.59,0,1,1-.41-1.11l6.89-2.53V5.08A1.25,1.25,0,0,1,33.5,3.83h1.94a1.25,1.25,0,0,1,1.24,1.25V33.71A1.25,1.25,0,0,1,35.44,35Z"/><path class="cls-1" d="M22.62,22.6a.58.58,0,0,1-.55-.39c0-.07-.8-2.2-1-2.68a.59.59,0,0,1,.36-.75.58.58,0,0,1,.76.35c.17.48.93,2.6,1,2.67a.6.6,0,0,1-.35.76A.52.52,0,0,1,22.62,22.6Z"/><path class="cls-1" d="M9,24.08A1.56,1.56,0,0,1,8.43,24a1.27,1.27,0,0,1-.65-.7l-.23-.62L6.06,18.41A.59.59,0,0,1,7.18,18l1.71,4.83a.08.08,0,0,0,0,0l20-7.34a.07.07,0,0,0,0-.08L26.84,10a.59.59,0,0,1,.34-.77.58.58,0,0,1,.76.34l2.15,5.53a1.24,1.24,0,0,1-.74,1.6L9.37,24A1.25,1.25,0,0,1,9,24.08Z"/><path class="cls-1" d="M4.38,23h0a1.23,1.23,0,0,1-1.16-.82L1.43,17.32a1.25,1.25,0,0,1,.74-1.6l1.13-.41.29,1.15-.14-.57.2.56-1.07.39a.06.06,0,0,0,0,.07L4.32,21.8a.08.08,0,0,0,0,0L6.84,21s0-.05,0-.07l-1-2.8.49-.18.2-.61.33.12L8,20.47a1.23,1.23,0,0,1-.74,1.59L4.8,23A1.23,1.23,0,0,1,4.38,23Z"/><path class="cls-1" d="M7.85,18.61A5.54,5.54,0,0,1,6.7,18.5a5.58,5.58,0,0,1-1.24-.34,6.41,6.41,0,0,1-3.69-3.8,1.25,1.25,0,0,1,0-.95,1.21,1.21,0,0,1,.71-.64l24-8.63a1.24,1.24,0,0,1,1.59.74,6.39,6.39,0,0,1,.39,2.21A6.53,6.53,0,0,1,27,11.23a6.39,6.39,0,0,1-2.74,1.92L10,18.23A6.5,6.5,0,0,1,7.85,18.61ZM27,5.25h0l-24,8.64s0,0,0,.07a5.28,5.28,0,0,0,3,3.1,4.49,4.49,0,0,0,1,.27,5,5,0,0,0,2.73-.22h0L23.89,12a5.15,5.15,0,0,0,2.23-1.56,5.31,5.31,0,0,0,1.23-3.39A5.24,5.24,0,0,0,27,5.29.07.07,0,0,0,27,5.25Z"/><path class="cls-1" d="M22.39,29.78a4.18,4.18,0,1,1,4.17-4.18A4.18,4.18,0,0,1,22.39,29.78Zm0-7.17a3,3,0,1,0,3,3A3,3,0,0,0,22.39,22.61Z"/></g></svg>