<svg xmlns="http://www.w3.org/2000/svg" viewBox="0 0 38 38"><defs><style>.cls-1{fill:#fff;}</style></defs><title>side menu_equipment</title><g id="color_sheme" data-name="color sheme"><path class="cls-1" d="M32.83,35.69H5.8A1.8,1.8,0,0,1,4,33.9V30.52a.74.74,0,0,1,.74-.74H33.89a.74.74,0,0,1,.74.74V33.9A1.8,1.8,0,0,1,32.83,35.69ZM5.48,31.26V33.9a.32.32,0,0,0,.32.32h27a.33.33,0,0,0,.32-.32V31.26Z"/><path class="cls-1" d="M29.82,31.21h-21a.74.74,0,0,1-.57-.27.77.77,0,0,1-.16-.62L13.62,3.23a.75.75,0,0,1,.73-.59h9.93a.73.73,0,0,1,.72.59l5.54,27.09a.73.73,0,0,1-.15.62A.74.74,0,0,1,29.82,31.21ZM9.71,29.73h19.2L23.67,4.11H15Z"/><path class="cls-1" d="M12.93,13.69a.74.74,0,0,1-.33-1.4L24.38,6.5A.74.74,0,0,1,25,7.83L13.25,13.61A.63.63,0,0,1,12.93,13.69Z"/><path class="cls-1" d="M14.63,21.45a.74.74,0,0,1-.33-1.4l11.78-5.79a.74.74,0,0,1,1,.34.74.74,0,0,1-.33,1L15,21.37A.61.61,0,0,1,14.63,21.45Z"/><path class="cls-1" d="M11.79,31.06a.74.74,0,0,1-.66-.42.74.74,0,0,1,.33-1l11.78-5.79a.75.75,0,0,1,1,.34.74.74,0,0,1-.33,1L12.11,31A.72.72,0,0,1,11.79,31.06Z"/></g></svg>