<svg id="_01" data-name="01" xmlns="http://www.w3.org/2000/svg" viewBox="0 0 38 38"><defs><style>.cls-1{fill:#fff;}</style></defs><title>side menu_all</title><path class="cls-1" d="M9.79,17.12H2.14A1.38,1.38,0,0,1,.75,15.74V7.42A1.38,1.38,0,0,1,2.14,6H9.79a1.38,1.38,0,0,1,1.39,1.38v8.32A1.38,1.38,0,0,1,9.79,17.12ZM2.33,15.54H9.59V7.62H2.33Z"/><path class="cls-1" d="M22.84,17.12H15.19a1.38,1.38,0,0,1-1.39-1.38V7.42A1.38,1.38,0,0,1,15.19,6h7.65a1.38,1.38,0,0,1,1.39,1.38v8.32A1.38,1.38,0,0,1,22.84,17.12Zm-7.46-1.58h7.26V7.62H15.38Z"/><path class="cls-1" d="M35.89,17.12H28.24a1.38,1.38,0,0,1-1.39-1.38V7.42A1.38,1.38,0,0,1,28.24,6h7.65a1.38,1.38,0,0,1,1.39,1.38v8.32A1.38,1.38,0,0,1,35.89,17.12Zm-7.46-1.58h7.26V7.62H28.43Z"/><path class="cls-1" d="M9.79,30.63H2.14A1.39,1.39,0,0,1,.75,29.24V20.92a1.38,1.38,0,0,1,1.39-1.38H9.79a1.38,1.38,0,0,1,1.39,1.38v8.32A1.39,1.39,0,0,1,9.79,30.63ZM2.33,29H9.59V21.12H2.33Z"/><path class="cls-1" d="M22.84,30.63H15.19a1.39,1.39,0,0,1-1.39-1.39V20.92a1.38,1.38,0,0,1,1.39-1.38h7.65a1.38,1.38,0,0,1,1.39,1.38v8.32A1.39,1.39,0,0,1,22.84,30.63ZM15.38,29h7.26V21.12H15.38Z"/><path class="cls-1" d="M35.89,30.63H28.24a1.39,1.39,0,0,1-1.39-1.39V20.92a1.38,1.38,0,0,1,1.39-1.38h7.65a1.38,1.38,0,0,1,1.39,1.38v8.32A1.39,1.39,0,0,1,35.89,30.63ZM28.43,29h7.26V21.12H28.43Z"/></svg>