<svg id="_01" data-name="01" xmlns="http://www.w3.org/2000/svg" viewBox="0 0 35 33"><defs><style>.cls-1,.cls-2{fill:gray;}.cls-2{fill-rule:evenodd;}</style></defs><title>search icon</title><path class="cls-1" d="M21.57,12.53l1.23-.12a9.13,9.13,0,0,0-9.09-8.25,8.44,8.44,0,0,0-.87,0,9.11,9.11,0,0,0-8.29,9,8.25,8.25,0,0,0,0,.86h0a9.13,9.13,0,0,0,9.1,8.26c.28,0,.57,0,.85,0a9.13,9.13,0,0,0,8.3-9.06,8.19,8.19,0,0,0,0-.85h0l-1.23.12-1.23.11c0,.21,0,.41,0,.62a6.65,6.65,0,0,1-6.05,6.6q-.32,0-.63,0a6.66,6.66,0,0,1-6.64-6h0q0-.31,0-.63a6.63,6.63,0,0,1,6.05-6.58l.64,0a6.65,6.65,0,0,1,6.63,6h0Z"/><path class="cls-2" d="M30.2,25.44A1.1,1.1,0,0,1,30.38,27l-.5.6a1.1,1.1,0,0,1-1.54.17L21.11,22a1.1,1.1,0,0,1-.17-1.54l.49-.6A1.1,1.1,0,0,1,23,19.69Z"/></svg>