<svg xmlns="http://www.w3.org/2000/svg" width="280" height="280" viewBox="0 0 280 280"><defs><style>.a,.d{fill:none;}.a{stroke:#333;stroke-miterlimit:10;stroke-width:20px;}.b{fill:#333;}.c{stroke:none;}</style></defs><g transform="translate(-2113.456 -1210.816)"><g class="a" transform="translate(2113.456 1210.816)"><circle class="c" cx="140" cy="140" r="140"/><circle class="d" cx="140" cy="140" r="130"/></g><line class="a" x1="220.773" y2="121.506" transform="translate(2157.546 1302.955)"/><path class="b" d="M2382.211,1346.9l-79.967,38.973c-3.806-3.807-8.565-6.662-14.276-6.662l-4.759-14.276-20.533,11.268,6.257,16.333a20.645,20.645,0,0,0,10.47,24.745c9.518,4.759,19.988.952,25.7-7.614l78.061-38.021"/><path class="b" d="M2303.685,1317.019c1.76-1.27,2.407-3.343,1.135-5.1h0l-10.945-18.87a29.818,29.818,0,0,1-12.81,11.924l-78.356,44.249c-3.519,2.54-8.31,3.321-12.144,3.947l-4.79.781,8.405,15.35,1.427,2.718a2.089,2.089,0,0,0,2.228,1.6l.96-.156.959-.156Z"/><path class="b" d="M2177.8,1353.281l-.959.157c-6.062-.979-11.478-4.03-15.934-7.238l-5.437,2.853c-1.76,1.27-2.406,3.343-1.135,5.1l13.8,24.306a2.089,2.089,0,0,0,2.229,1.6l.959-.156.959-.156,11.674-6.822c1.76-1.27,2.407-3.343,1.135-5.1h0Z"/><path class="b" d="M2199.856,1343.783l78.356-44.249a32.181,32.181,0,0,0,11.851-11.768c3.853-6.529,4.675-13.549,3.426-21.213-.625-3.833-2.053-6.55-3.634-10.227-1.272-1.759-3.344-2.406-5.1-1.134l-126.169,70.732c-1.759,1.27-2.406,3.343-1.134,5.1,4.28,8.154,11.924,12.809,20.214,15.392,2.072.646,3.988.333,6.062.978,1.916-.312,3.987.334,5.906.021C2193.306,1345.835,2197.137,1345.211,2199.856,1343.783Z"/></g></svg>