<svg xmlns="http://www.w3.org/2000/svg" width="280" height="280" viewBox="0 0 280 280"><defs><style>.a,.d{fill:none;}.a{stroke:#333;stroke-miterlimit:10;stroke-width:20px;}.b{fill:#333;}.c{stroke:none;}</style></defs><g transform="translate(-820 -427)"><line class="a" x1="225.529" y2="124.123" transform="translate(849.769 522.316)"/><g class="a" transform="translate(820 427)"><circle class="c" cx="140" cy="140" r="140"/><circle class="d" cx="140" cy="140" r="130"/></g><path class="b" d="M2681.539,1407.1h-133.3a3.8,3.8,0,0,0-3.892,3.707c0,.032,0,.063,0,.094v18.54a9.27,9.27,0,0,0,9.27,9.27h122.365a9.27,9.27,0,0,0,9.27-9.27V1410.9A3.8,3.8,0,0,0,2681.539,1407.1Z" transform="translate(-1657.371 -783.816)"/><path class="b" d="M2646.313,1267.588a3.9,3.9,0,0,0-3.8-3.152h-45.331a3.893,3.893,0,0,0-3.8,3.152l-8.065,45.7,62.851-35.412Z" transform="translate(-1657.371 -783.816)"/><path class="b" d="M2599.128,1367.149a7.785,7.785,0,0,1-6.767-3.986,7.694,7.694,0,0,1,2.909-10.485l.15-.083,60.07-33-4.449-25.493-69.248,39.027-13.627,77.127a3.863,3.863,0,0,0,3.8,4.543h8.157a2.877,2.877,0,0,1-.649-.835,7.787,7.787,0,0,1,2.874-10.568l53.767-30.22a7.787,7.787,0,1,1,8.7,12.918,7.7,7.7,0,0,1-1.1.616l-50.058,28.274h74.161a3.613,3.613,0,0,0,2.966-1.391,3.521,3.521,0,0,0,.834-3.151l-13.256-74.347-55.621,30.5A7.962,7.962,0,0,1,2599.128,1367.149Z" transform="translate(-1657.371 -783.816)"/></g></svg>